<svg width="47" height="31" viewBox="0 0 47 31" fill="none" xmlns="http://www.w3.org/2000/svg">
<path d="M13.973 10.5752C13.6426 9.96171 13.1455 9.45438 12.5393 9.11186L11.7695 8.69179C11.7695 8.69179 12.6592 7.34849 13.7747 7.71316C14.8903 8.07784 14.54 10.5106 14.3095 11.4384" fill="#4D4D4D"/>
<path d="M17.107 13.372C17.0234 12.0006 16.5832 10.6751 15.8301 9.52669C16.204 9.27234 16.6605 9.17001 17.107 9.24048C17.3316 9.2824 17.5433 9.37649 17.725 9.51518C17.9067 9.65387 18.0534 9.83331 18.1534 10.0391C18.2933 10.4114 18.3377 10.813 18.2824 11.207C18.2788 11.3857 18.2493 11.563 18.1949 11.7332C18.157 11.8399 18.1075 11.942 18.0473 12.0379C17.9705 12.1641 17.8875 12.2841 17.7984 12.3979C17.5679 12.7165 17.3374 13.0581 17.107 13.372Z" fill="#999999"/>
<path d="M10.2115 8.13867C11.1466 8.18661 12.0431 8.5273 12.7745 9.11269C13.4982 9.65278 14.3464 10.7745 14.3095 11.4208C14.2726 12.067 12.7238 15.2984 12.6177 17.1402C12.5117 18.9821 12.8879 20.6508 13.1949 21.6156C13.6773 22.3611 16.2208 24.203 16.2208 24.203C16.2208 24.203 15.3559 24.203 14.1597 23.7645C13.5127 23.619 12.7078 23.1703 12.274 22.6681C9.87232 20.3323 9.98431 18.5782 9.99353 15.3007C9.99353 12.9187 10.5729 11.6793 10.6513 10.7838C10.7297 9.88823 11.1667 9.53394 10.7877 8.62337L10.2115 8.13867Z" fill="#1A1A1A"/>
<path d="M14.46 10.3808C14.3116 11.3424 14.0195 12.276 13.5934 13.1505C13.1967 14.0732 12.858 15.0198 12.5793 15.9848C12.2072 17.4626 12.3119 19.3137 12.5792 20.3425C13.0933 22.3208 14.1507 23.837 16.2193 24.2016C15.2213 23.4065 14.5182 22.341 14.1835 21.1088C13.9894 20.4737 13.9233 19.8063 13.9889 19.1454C14.0546 18.4845 14.2508 17.8432 14.5661 17.2589C14.7411 16.9304 14.9334 16.6114 15.1423 16.3034L16.917 13.5336C17.0067 13.4111 17.0738 13.2735 17.1152 13.1274C17.1438 12.9749 17.1438 12.8183 17.1152 12.6658C16.8669 11.2843 16.2845 9.98465 15.4189 8.88054C14.9118 8.23427 14.2111 7.65234 13.3906 7.65234C13.7636 7.67875 14.1104 7.8959 14.248 8.2435C14.5248 8.89596 14.5137 9.68428 14.46 10.3808Z" fill="#808080"/>
<path d="M19.7619 14.6854C19.7619 14.9837 19.9989 15.2884 20.1271 15.4638C20.4015 15.8393 20.9568 16.3409 20.9568 16.4978C20.9476 16.5948 20.9035 16.641 20.7856 16.7274C20.6378 16.8357 20.3869 16.9825 20.3869 16.9825C20.3869 16.9825 20.432 17.1549 20.5335 17.2755C20.6412 17.4035 20.7952 17.5565 20.6111 17.735C20.427 17.9135 20.343 17.9635 20.343 17.9635C20.343 17.9635 20.4239 18.0279 20.4959 18.1273C20.5679 18.2268 20.5771 18.3189 20.5835 18.4228C20.565 18.649 20.2746 18.7413 20.1686 18.9444C20.1222 19.0584 20.1078 19.3347 20.1271 19.4562C20.1624 19.8123 20.0141 19.904 19.8643 20.0286C19.7146 20.1533 19.5509 20.1651 19.3803 20.1533C18.9209 20.1533 17.8738 20.0258 17.2404 20.3535C16.2456 20.8682 16.3303 23.1537 16.2208 24.2017C14.5729 23.6516 13.8163 20.5947 13.8164 19.4562C13.8165 18.3177 14.0994 17.5226 14.6047 16.6865C15.5573 15.3171 16.4793 13.9322 17.3705 12.532C17.9083 11.7229 18.1292 10.9173 18.1065 9.94922C18.1065 9.94922 18.8735 10.9018 19.2328 11.4102C19.5661 11.8617 19.9588 12.9625 20.0141 13.5452C20.0566 13.9937 19.7619 14.3871 19.7619 14.6854Z" fill="#CCCCCC"/>
<path d="M16.22 24.2013C13.1503 24.0697 9.11587 22.184 8.10716 17.7109C7.09845 13.2378 8.23277 10.1404 8.67725 9.29105C9.12174 8.4417 9.86131 7.97684 10.5888 8.19694C11.9164 8.59855 10.3217 12.01 10.1682 14.0711C10.0147 16.1322 10.1682 18.2372 11.1768 20.4737C12.1855 22.7103 13.8958 24.1017 16.22 24.2013Z" fill="black"/>
<path d="M24.5413 12.4648L26.3552 17.9508H26.4267L28.2372 12.4648H29.6257L27.1686 19.4345H25.6099L23.1562 12.4648H24.5413Z" fill="white"/>
<path d="M31.259 19.54C30.9277 19.54 30.6294 19.4811 30.3639 19.3631C30.1008 19.2428 29.892 19.0659 29.7378 18.8322C29.5857 18.5985 29.5097 18.3104 29.5097 17.9678C29.5097 17.6728 29.5642 17.4289 29.6731 17.2361C29.782 17.0432 29.9306 16.889 30.1189 16.7733C30.3072 16.6576 30.5193 16.5702 30.7553 16.5112C30.9935 16.45 31.2397 16.4057 31.4938 16.3785C31.8001 16.3467 32.0485 16.3184 32.2391 16.2934C32.4297 16.2662 32.5681 16.2254 32.6543 16.1709C32.7428 16.1142 32.787 16.0268 32.787 15.9089V15.8884C32.787 15.6321 32.711 15.4335 32.559 15.2929C32.407 15.1522 32.188 15.0819 31.9022 15.0819C31.6004 15.0819 31.3611 15.1477 31.1841 15.2793C31.0094 15.4109 30.8914 15.5663 30.8302 15.7455L29.6799 15.5822C29.7706 15.2645 29.9204 14.9991 30.1291 14.7858C30.3378 14.5703 30.5931 14.4092 30.8948 14.3026C31.1966 14.1937 31.5301 14.1392 31.8954 14.1392C32.1472 14.1392 32.3979 14.1687 32.6475 14.2277C32.897 14.2867 33.125 14.3842 33.3315 14.5204C33.538 14.6542 33.7036 14.8369 33.8284 15.0683C33.9554 15.2997 34.0189 15.589 34.0189 15.9361V19.4345H32.8346V18.7165H32.7938C32.7189 18.8617 32.6134 18.9978 32.4773 19.1249C32.3434 19.2496 32.1744 19.3506 31.9702 19.4277C31.7683 19.5026 31.5312 19.54 31.259 19.54ZM31.5789 18.6348C31.8262 18.6348 32.0406 18.586 32.2221 18.4885C32.4036 18.3886 32.5431 18.257 32.6407 18.0937C32.7405 17.9303 32.7904 17.7522 32.7904 17.5594V16.9434C32.7518 16.9752 32.686 17.0047 32.593 17.0319C32.5023 17.0591 32.4002 17.083 32.2867 17.1034C32.1733 17.1238 32.061 17.1419 31.9498 17.1578C31.8386 17.1737 31.7422 17.1873 31.6605 17.1987C31.4768 17.2236 31.3123 17.2645 31.1671 17.3212C31.0219 17.3779 30.9073 17.4573 30.8234 17.5594C30.7394 17.6592 30.6974 17.7885 30.6974 17.9474C30.6974 18.1742 30.7803 18.3455 30.9459 18.4612C31.1115 18.5769 31.3225 18.6348 31.5789 18.6348Z" fill="white"/>
<path d="M37.3462 19.5366C36.8243 19.5366 36.3763 19.4221 36.0019 19.1929C35.6298 18.9638 35.3428 18.6473 35.1409 18.2434C34.9412 17.8373 34.8414 17.37 34.8414 16.8413C34.8414 16.3104 34.9435 15.8419 35.1477 15.4358C35.3519 15.0274 35.64 14.7098 36.0121 14.4829C36.3865 14.2538 36.8289 14.1392 37.3394 14.1392C37.7636 14.1392 38.1391 14.2175 38.4658 14.374C38.7948 14.5283 39.0568 14.7472 39.2519 15.0308C39.4471 15.3122 39.5582 15.6411 39.5855 16.0178H38.408C38.3603 15.7659 38.2469 15.5561 38.0676 15.3882C37.8907 15.218 37.6536 15.1329 37.3564 15.1329C37.1045 15.1329 36.8833 15.201 36.6928 15.3371C36.5022 15.471 36.3536 15.6638 36.2469 15.9157C36.1426 16.1675 36.0904 16.4692 36.0904 16.8209C36.0904 17.1771 36.1426 17.4834 36.2469 17.7398C36.3513 17.9939 36.4976 18.1901 36.6859 18.3285C36.8765 18.4646 37.1 18.5327 37.3564 18.5327C37.5379 18.5327 37.7001 18.4987 37.843 18.4306C37.9882 18.3603 38.1096 18.2593 38.2072 18.1277C38.3047 17.9961 38.3717 17.8362 38.408 17.6479H39.5855C39.556 18.0177 39.4471 18.3455 39.2587 18.6314C39.0704 18.915 38.8141 19.1373 38.4896 19.2984C38.1652 19.4572 37.784 19.5366 37.3462 19.5366Z" fill="white"/>
</svg>
