<svg width="68" height="82" viewBox="0 0 68 82" fill="none" xmlns="http://www.w3.org/2000/svg">
<path d="M32.36 15.1352C30.6998 12.17 28.2023 9.71796 25.1563 8.06245L21.2881 6.03209C21.2881 6.03209 25.7585 -0.460552 31.364 1.30206C36.9694 3.06467 35.209 14.8228 34.0509 19.3075" fill="black"/>
<path d="M48.111 28.6555C47.6909 22.0275 45.479 15.6205 41.6948 10.07C43.5735 8.8407 45.8675 8.34611 48.111 8.68671C49.2397 8.88932 50.3033 9.34406 51.2165 10.0144C52.1297 10.6848 52.8668 11.5521 53.369 12.5466C54.0721 14.3463 54.2952 16.2872 54.0176 18.1914C53.9995 19.0553 53.8512 19.9121 53.5775 20.7349C53.3871 21.2504 53.1385 21.7442 52.8363 22.2075C52.4502 22.8173 52.0332 23.3974 51.5854 23.9478C50.4273 25.4873 49.2691 27.1383 48.111 28.6555Z" fill="#999999"/>
<path d="M13.4579 3.35706C18.1566 3.58876 22.6613 5.23542 26.3366 8.06479C29.9732 10.6752 34.2351 16.0969 34.0498 19.2206C33.8645 22.3442 26.0818 37.9622 25.549 46.8645C25.0163 55.7668 26.9066 63.8326 28.4491 68.4957C30.8731 72.099 43.6538 81.0013 43.6538 81.0013C43.6538 81.0013 39.3079 81.0013 33.297 78.8817C30.0461 78.1787 26.0016 76.0098 23.8216 73.5827C11.7537 62.2931 12.3164 53.8147 12.3627 37.9735C12.3627 26.4608 15.2741 20.4701 15.6679 16.1417C16.0617 11.8133 18.2576 10.1008 16.3533 5.69976L13.4579 3.35706Z" fill="#1A1A1A"/>
<path d="M34.8148 14.1959C34.069 18.8435 32.601 23.3563 30.4602 27.5828C28.4669 32.0426 26.765 36.6179 25.3643 41.2821C23.4946 48.4246 24.0206 57.3715 25.364 62.3442C27.9472 71.906 33.2603 79.2343 43.6546 80.9966C38.6402 77.1536 35.1073 72.0038 33.425 66.0479C32.4499 62.9783 32.1176 59.7525 32.4476 56.5582C32.7777 53.3638 33.7634 50.2644 35.3476 47.4401C36.227 45.8522 37.1935 44.3106 38.2429 42.8216L47.1607 29.4347C47.6112 28.8424 47.9484 28.1775 48.1567 27.4713C48.3004 26.734 48.3004 25.9774 48.1567 25.2401C46.909 18.5627 43.9824 12.2812 39.6327 6.94469C37.0848 3.82107 33.5641 1.00842 29.4411 1.00842C31.3154 1.13604 33.0582 2.18562 33.7494 3.86568C35.1403 7.01925 35.0845 10.8294 34.8148 14.1959Z" fill="#808080"/>
<path d="M61.4481 35.0036C61.4481 36.4454 62.6388 37.918 63.283 38.7658C64.662 40.5809 67.4523 43.005 67.4523 43.7636C67.406 44.2321 67.1843 44.4556 66.5921 44.8729C65.849 45.3966 64.5882 46.1063 64.5882 46.1063C64.5882 46.1063 64.8149 46.9394 65.325 47.5224C65.8663 48.1409 66.6403 48.8803 65.7151 49.7431C64.7899 50.6058 64.3679 50.8475 64.3679 50.8475C64.3679 50.8475 64.7741 51.1588 65.136 51.6395C65.4979 52.1202 65.5442 52.5654 65.5761 53.0675C65.4835 54.1607 64.0242 54.607 63.4915 55.5887C63.2583 56.1396 63.1862 57.4749 63.283 58.0625C63.4605 59.7836 62.7152 60.2267 61.9627 60.8291C61.2102 61.4315 60.3874 61.4885 59.5305 61.4315C57.222 61.4315 51.9604 60.8153 48.7775 62.3993C43.7793 64.8868 44.2045 75.9335 43.6542 80.9988C35.3738 78.3401 31.5723 63.5651 31.5728 58.0625C31.5732 52.5598 32.9946 48.7165 35.5336 44.6755C40.3206 38.0565 44.9533 31.363 49.4314 24.5952C52.1341 20.6845 53.2441 16.791 53.1296 12.1119C53.1296 12.1119 56.9841 16.7162 58.7893 19.1735C60.4639 21.3556 62.4374 26.676 62.7152 29.4926C62.929 31.6603 61.4481 33.5617 61.4481 35.0036Z" fill="#CCCCCC"/>
<path d="M43.6545 80.9986C28.2295 80.3627 7.95729 71.2482 2.88866 49.6284C-2.17996 28.0085 3.51983 13.0376 5.75329 8.9324C7.98676 4.82721 11.703 2.58038 15.3583 3.64423C22.0293 5.58533 14.0164 22.0739 13.2451 32.036C12.4739 41.9981 13.2451 52.1721 18.3134 62.9821C23.3816 73.792 31.9755 80.5172 43.6545 80.9986Z" fill="black"/>
</svg>
