<svg width="40" height="40" viewBox="0 0 40 40" fill="none" xmlns="http://www.w3.org/2000/svg">
    <path
        d="M20.0002 19.9999C19.0835 19.9999 18.2988 19.6735 17.646 19.0208C16.9932 18.368 16.6668 17.5833 16.6668 16.6666C16.6668 15.7499 16.9932 14.9652 17.646 14.3124C18.2988 13.6596 19.0835 13.3333 20.0002 13.3333C20.9168 13.3333 21.7016 13.6596 22.3543 14.3124C23.0071 14.9652 23.3335 15.7499 23.3335 16.6666C23.3335 17.5833 23.0071 18.368 22.3543 19.0208C21.7016 19.6735 20.9168 19.9999 20.0002 19.9999ZM13.3335 26.6666V24.3333C13.3335 23.861 13.4552 23.4269 13.6985 23.0308C13.9418 22.6346 14.2646 22.3327 14.6668 22.1249C15.5279 21.6944 16.4029 21.3713 17.2918 21.1558C18.1807 20.9402 19.0835 20.8327 20.0002 20.8333C20.9168 20.8333 21.8196 20.941 22.7085 21.1566C23.5974 21.3721 24.4724 21.6949 25.3335 22.1249C25.7363 22.3333 26.0593 22.6355 26.3027 23.0316C26.546 23.4277 26.6674 23.8616 26.6668 24.3333V26.6666H13.3335ZM15.0002 24.9999H25.0002V24.3333C25.0002 24.1805 24.9618 24.0416 24.8852 23.9166C24.8085 23.7916 24.7079 23.6944 24.5835 23.6249C23.8335 23.2499 23.0766 22.9688 22.3127 22.7816C21.5488 22.5944 20.7779 22.5005 20.0002 22.4999C19.2224 22.4999 18.4516 22.5938 17.6877 22.7816C16.9238 22.9694 16.1668 23.2505 15.4168 23.6249C15.2918 23.6944 15.191 23.7916 15.1143 23.9166C15.0377 24.0416 14.9996 24.1805 15.0002 24.3333V24.9999ZM20.0002 18.3333C20.4585 18.3333 20.851 18.1699 21.1777 17.8433C21.5043 17.5166 21.6674 17.1244 21.6668 16.6666C21.6668 16.2083 21.5035 15.8158 21.1768 15.4891C20.8502 15.1624 20.4579 14.9994 20.0002 14.9999C19.5418 14.9999 19.1493 15.1633 18.8227 15.4899C18.496 15.8166 18.3329 16.2088 18.3335 16.6666C18.3335 17.1249 18.4968 17.5174 18.8235 17.8441C19.1502 18.1708 19.5424 18.3338 20.0002 18.3333Z"
        fill="white" />
    <rect x="0.5" y="0.5" width="39" height="39" rx="19.5" stroke="white" fill="none" />
</svg>
    