<svg width="20" height="20" viewBox="0 0 20 20" fill="none" xmlns="http://www.w3.org/2000/svg">
<path d="M5.56 16.9C7.8 16.9 8.52 15.5 8.52 13.82V12.16H10.72V13.82C10.72 15.5 11.44 16.9 13.68 16.9C15.54 16.9 16.74 15.72 16.74 13.88C16.74 11.94 15.58 10.8 13.3 10.8H12.12V8.6H13.3C15.58 8.6 16.74 7.46 16.74 5.52C16.74 3.68 15.54 2.5 13.68 2.5C11.44 2.5 10.72 3.9 10.72 5.58V7.24H8.52V5.58C8.52 3.9 7.8 2.5 5.56 2.5C3.7 2.5 2.5 3.68 2.5 5.52C2.5 7.46 3.66 8.6 5.94 8.6H7.12V10.8H5.94C3.66 10.8 2.5 11.94 2.5 13.88C2.5 15.72 3.7 16.9 5.56 16.9ZM12.12 5.54C12.12 4.52 12.64 3.88 13.68 3.88C14.62 3.88 15.32 4.34 15.32 5.52C15.32 6.66 14.72 7.24 13.3 7.24H12.12V5.54ZM5.94 7.24C4.52 7.24 3.92 6.66 3.92 5.52C3.92 4.34 4.62 3.88 5.56 3.88C6.6 3.88 7.12 4.52 7.12 5.54V7.24H5.94ZM8.52 10.8V8.6H10.72V10.8H8.52ZM5.56 15.52C4.62 15.52 3.92 15.06 3.92 13.88C3.92 12.74 4.52 12.16 5.94 12.16H7.12V13.86C7.12 14.88 6.6 15.52 5.56 15.52ZM12.12 13.86V12.16H13.3C14.72 12.16 15.32 12.74 15.32 13.88C15.32 15.06 14.62 15.52 13.68 15.52C12.64 15.52 12.12 14.88 12.12 13.86Z" fill="#0D0D0D"/>
</svg>
