<svg width="14" height="14" viewBox="0 0 14 14" fill="none" xmlns="http://www.w3.org/2000/svg">
<path d="M2.91667 12.8334C2.59583 12.8334 2.32108 12.719 2.09242 12.4904C1.86375 12.2617 1.74961 11.9871 1.75 11.6667V3.50002H2.91667V11.6667H9.33333V12.8334H2.91667ZM5.25 10.5C4.92917 10.5 4.65442 10.3857 4.42575 10.157C4.19708 9.92836 4.08295 9.6538 4.08333 9.33335V2.33335C4.08333 2.01252 4.19767 1.73777 4.42633 1.5091C4.655 1.28044 4.92956 1.1663 5.25 1.16669H10.5C10.8208 1.16669 11.0956 1.28102 11.3243 1.50969C11.5529 1.73835 11.6671 2.01291 11.6667 2.33335V9.33335C11.6667 9.65419 11.5523 9.92894 11.3237 10.1576C11.095 10.3863 10.8204 10.5004 10.5 10.5H5.25ZM5.25 9.33335H10.5V2.33335H5.25V9.33335Z" fill="white"/>
</svg>
