<svg width="19" height="19" viewBox="0 0 19 19" fill="none" xmlns="http://www.w3.org/2000/svg">
<path fill-rule="evenodd" clip-rule="evenodd" d="M9.06301 0.5C9.61529 0.5 10.063 0.947715 10.063 1.5V3.29177C10.063 3.84405 9.61529 4.29177 9.06301 4.29177C8.51072 4.29177 8.06301 3.84405 8.06301 3.29177V1.5C8.06301 0.947715 8.51072 0.5 9.06301 0.5ZM12.2301 9.14649C12.2301 11.1256 10.6257 12.73 8.64652 12.73C6.66739 12.73 5.06299 11.1256 5.06299 9.14649C5.06299 7.16736 6.66739 5.56296 8.64652 5.56296C10.6257 5.56296 12.2301 7.16736 12.2301 9.14649ZM10.063 15.8341C10.063 15.2819 9.61529 14.8341 9.06301 14.8341C8.51072 14.8341 8.06301 15.2819 8.06301 15.8341V17.6259C8.06301 18.1782 8.51072 18.6259 9.06301 18.6259C9.61529 18.6259 10.063 18.1782 10.063 17.6259V15.8341ZM18.126 9.56295C18.126 10.1152 17.6783 10.5629 17.126 10.5629H15.3342C14.7819 10.5629 14.3342 10.1152 14.3342 9.56295C14.3342 9.01066 14.7819 8.56295 15.3342 8.56295H17.126C17.6783 8.56295 18.126 9.01066 18.126 9.56295ZM2.79177 10.5629C3.34405 10.5629 3.79177 10.1152 3.79177 9.56295C3.79177 9.01066 3.34405 8.56295 2.79177 8.56295H1C0.447715 8.56295 0 9.01066 0 9.56295C0 10.1152 0.447715 10.5629 1 10.5629H2.79177ZM15.4715 3.15447C15.8621 3.54499 15.8621 4.17816 15.4715 4.56868L14.2046 5.83565C13.814 6.22617 13.1809 6.22617 12.7903 5.83565C12.3998 5.44513 12.3998 4.81196 12.7903 4.42144L14.0573 3.15447C14.4478 2.76394 15.081 2.76394 15.4715 3.15447ZM5.33567 14.7045C5.72619 14.3139 5.72619 13.6808 5.33567 13.2902C4.94514 12.8997 4.31198 12.8997 3.92145 13.2902L2.65448 14.5572C2.26396 14.9477 2.26396 15.5809 2.65448 15.9714C3.04501 16.362 3.67817 16.362 4.0687 15.9714L5.33567 14.7045ZM15.4715 15.9714C15.081 16.3619 14.4478 16.3619 14.0573 15.9714L12.7903 14.7044C12.3998 14.3139 12.3998 13.6808 12.7903 13.2902C13.1809 12.8997 13.814 12.8997 14.2046 13.2902L15.4715 14.5572C15.8621 14.9477 15.8621 15.5809 15.4715 15.9714ZM3.92145 5.83564C4.31198 6.22616 4.94514 6.22616 5.33567 5.83564C5.72619 5.44511 5.72619 4.81195 5.33567 4.42143L4.0687 3.15445C3.67817 2.76393 3.04501 2.76393 2.65448 3.15445C2.26396 3.54498 2.26396 4.17814 2.65448 4.56867L3.92145 5.83564Z" fill="black"/>
</svg>
