<svg width="40" height="40" viewBox="0 0 40 40" fill="none" xmlns="http://www.w3.org/2000/svg">
<path d="M14.1999 23.0766C12.4666 23.0766 11.0533 21.5016 11.0533 19.5733C11.0533 17.6466 12.4316 16.0733 14.2016 16.0733C15.9516 16.0733 17.3849 17.6466 17.3499 19.5733C17.3499 21.5016 15.9516 23.0766 14.1999 23.0766ZM25.8233 23.0766C24.0899 23.0766 22.6733 21.5016 22.6733 19.5733C22.6733 17.6466 24.0549 16.0733 25.8233 16.0733C27.5733 16.0733 29.0066 17.6466 28.9733 19.5733C28.9733 21.5016 27.5916 23.0766 25.8233 23.0766ZM16.8749 7.20493L16.3616 6.2666L15.3049 6.4416C12.9102 6.84089 10.5796 7.55835 8.37494 8.57493L7.99494 8.7516L7.75827 9.09993C3.40327 15.5233 2.20827 21.8466 2.79994 28.0599L2.86494 28.7366L3.41494 29.1366C5.97692 31.0164 8.83839 32.4494 11.8783 33.3749L13.1949 33.7783L15.0499 29.2499C18.2333 30.0366 21.7666 30.0383 24.9483 29.2499L26.7933 33.7799L28.1099 33.3749C31.1521 32.4519 34.0152 31.0181 36.5766 29.1349L37.1216 28.7383L37.1883 28.0683C37.9149 20.8683 36.0266 14.5949 32.2583 9.09327L32.0216 8.74827L31.6416 8.57493C29.4375 7.56299 27.1097 6.84571 24.7183 6.4416L23.6883 6.26994L23.1649 7.1716C23.01 7.44123 22.8638 7.71582 22.7266 7.99493C20.9186 7.80817 19.0962 7.80817 17.2883 7.99493C17.1555 7.72901 17.0177 7.46563 16.8749 7.20493ZM11.1916 27.6833C11.5199 27.8733 11.8666 28.0599 12.2083 28.2299L11.4599 30.0566C9.43593 29.3187 7.51562 28.3227 5.7466 27.0933C5.3716 21.8616 6.43494 16.5849 10.0199 11.1433C11.5329 10.477 13.11 9.96708 14.7266 9.6216C14.8266 9.82993 14.9199 10.0333 14.9966 10.2149L15.4516 11.2866L16.6049 11.1183C18.8651 10.7871 21.1614 10.7871 23.4216 11.1183L24.5716 11.2849L25.0249 10.2149C25.1033 10.0283 25.1949 9.82493 25.2916 9.6216C26.9199 9.9716 28.4966 10.4866 30.0049 11.1466C33.1299 15.8466 34.7066 21.0899 34.2483 27.0916C32.4793 28.3232 30.5576 29.3194 28.5316 30.0549L27.7899 28.2316C28.1333 28.0599 28.4799 27.8733 28.8116 27.6833C29.6283 27.2133 30.5066 26.6266 31.0666 26.0666L28.9333 23.9333C28.6616 24.2066 28.0616 24.6333 27.3049 25.0699C26.5649 25.4966 25.8299 25.8416 25.3599 25.9966C22.0216 27.1016 17.9799 27.1016 14.6399 25.9966C14.1716 25.8416 13.4366 25.4966 12.6966 25.0699C11.9399 24.6349 11.3399 24.2066 11.0666 23.9333L8.93327 26.0666C9.49494 26.6266 10.3749 27.2133 11.1916 27.6833Z" fill="white"/>
</svg>
