<svg width="40" height="40" viewBox="0 0 40 40" fill="none" xmlns="http://www.w3.org/2000/svg">
<path d="M14.1999 23.0767C12.4666 23.0767 11.0533 21.5017 11.0533 19.5733C11.0533 17.6467 12.4316 16.0733 14.2016 16.0733C15.9516 16.0733 17.3849 17.6467 17.3499 19.5733C17.3499 21.5017 15.9516 23.0767 14.1999 23.0767ZM25.8233 23.0767C24.0899 23.0767 22.6733 21.5017 22.6733 19.5733C22.6733 17.6467 24.0549 16.0733 25.8233 16.0733C27.5733 16.0733 29.0066 17.6467 28.9733 19.5733C28.9733 21.5017 27.5916 23.0767 25.8233 23.0767ZM16.8749 7.205L16.3616 6.26666L15.3049 6.44166C12.9102 6.84095 10.5796 7.55841 8.37494 8.575L7.99494 8.75166L7.75827 9.1C3.40327 15.5233 2.20827 21.8467 2.79994 28.06L2.86494 28.7367L3.41494 29.1367C5.97692 31.0165 8.83839 32.4495 11.8783 33.375L13.1949 33.7783L15.0499 29.25C18.2333 30.0367 21.7666 30.0383 24.9483 29.25L26.7933 33.78L28.1099 33.375C31.1521 32.4519 34.0152 31.0181 36.5766 29.135L37.1216 28.7383L37.1883 28.0683C37.9149 20.8683 36.0266 14.595 32.2583 9.09333L32.0216 8.74833L31.6416 8.575C29.4375 7.56305 27.1097 6.84578 24.7183 6.44166L23.6883 6.27L23.1649 7.17166C23.01 7.44129 22.8638 7.71588 22.7266 7.995C20.9186 7.80823 19.0962 7.80823 17.2883 7.995C17.1555 7.72908 17.0177 7.4657 16.8749 7.205ZM11.1916 27.6833C11.5199 27.8733 11.8666 28.06 12.2083 28.23L11.4599 30.0567C9.43593 29.3188 7.51562 28.3228 5.7466 27.0933C5.3716 21.8617 6.43494 16.585 10.0199 11.1433C11.5329 10.477 13.11 9.96714 14.7266 9.62166C14.8266 9.83 14.9199 10.0333 14.9966 10.215L15.4516 11.2867L16.6049 11.1183C18.8651 10.7872 21.1614 10.7872 23.4216 11.1183L24.5716 11.285L25.0249 10.215C25.1033 10.0283 25.1949 9.825 25.2916 9.62166C26.9199 9.97166 28.4966 10.4867 30.0049 11.1467C33.1299 15.8467 34.7066 21.09 34.2483 27.0917C32.4793 28.3233 30.5576 29.3194 28.5316 30.055L27.7899 28.2317C28.1333 28.06 28.4799 27.8733 28.8116 27.6833C29.6283 27.2133 30.5066 26.6267 31.0666 26.0667L28.9333 23.9333C28.6616 24.2067 28.0616 24.6333 27.3049 25.07C26.5649 25.4967 25.8299 25.8417 25.3599 25.9967C22.0216 27.1017 17.9799 27.1017 14.6399 25.9967C14.1716 25.8417 13.4366 25.4967 12.6966 25.07C11.9399 24.635 11.3399 24.2067 11.0666 23.9333L8.93327 26.0667C9.49494 26.6267 10.3749 27.2133 11.1916 27.6833Z" fill="black"/>
</svg>
