<svg width="40" height="40" viewBox="0 0 40 40" fill="none" xmlns="http://www.w3.org/2000/svg">
<path d="M33.1458 8.88331C30.9292 7.84997 28.5292 7.09997 26.0292 6.66664C26.0072 6.66594 25.9854 6.67005 25.9653 6.67869C25.9451 6.68733 25.9271 6.70029 25.9125 6.71664C25.6125 7.26664 25.2625 7.98331 25.0292 8.53331C22.3775 8.13331 19.6808 8.13331 17.0292 8.53331C16.7958 7.96664 16.4458 7.26664 16.1292 6.71664C16.1125 6.68331 16.0625 6.66664 16.0125 6.66664C13.5125 7.09997 11.1292 7.84997 8.89583 8.88331C8.87917 8.88331 8.8625 8.89997 8.84583 8.91664C4.3125 15.7 3.0625 22.3 3.67917 28.8333C3.67917 28.8666 3.69583 28.9 3.72917 28.9166C6.72917 31.1166 9.6125 32.45 12.4625 33.3333C12.5125 33.35 12.5625 33.3333 12.5792 33.3C13.2458 32.3833 13.8458 31.4166 14.3625 30.4C14.3958 30.3333 14.3625 30.2666 14.2958 30.25C13.3458 29.8833 12.4458 29.45 11.5625 28.95C11.4958 28.9166 11.4958 28.8166 11.5458 28.7666C11.7292 28.6333 11.9125 28.4833 12.0958 28.35C12.1292 28.3166 12.1792 28.3166 12.2125 28.3333C17.9458 30.95 24.1292 30.95 29.7958 28.3333C29.8292 28.3166 29.8792 28.3166 29.9125 28.35C30.0958 28.5 30.2792 28.6333 30.4625 28.7833C30.5292 28.8333 30.5292 28.9333 30.4458 28.9666C29.5792 29.4833 28.6625 29.9 27.7125 30.2666C27.6458 30.2833 27.6292 30.3666 27.6458 30.4166C28.1792 31.4333 28.7792 32.4 29.4292 33.3166C29.4792 33.3333 29.5292 33.35 29.5792 33.3333C32.4458 32.45 35.3292 31.1166 38.3292 28.9166C38.3625 28.9 38.3792 28.8666 38.3792 28.8333C39.1125 21.2833 37.1625 14.7333 33.2125 8.91664C33.1958 8.89997 33.1792 8.88331 33.1458 8.88331ZM15.2292 24.85C13.5125 24.85 12.0792 23.2666 12.0792 21.3166C12.0792 19.3666 13.4792 17.7833 15.2292 17.7833C16.9958 17.7833 18.3958 19.3833 18.3792 21.3166C18.3792 23.2666 16.9792 24.85 15.2292 24.85ZM26.8458 24.85C25.1292 24.85 23.6958 23.2666 23.6958 21.3166C23.6958 19.3666 25.0958 17.7833 26.8458 17.7833C28.6125 17.7833 30.0125 19.3833 29.9958 21.3166C29.9958 23.2666 28.6125 24.85 26.8458 24.85Z" fill="white"/>
</svg>
