<svg width="16" height="16" viewBox="0 0 16 16" fill="none"
    xmlns="http://www.w3.org/2000/svg">
    <path d="M13.2585 3.5532C12.3719 3.13987 11.4119 2.83987 10.4119 2.66653C10.4031 2.66625 10.3944 2.6679 10.3863 2.67136C10.3782 2.67481 10.371 2.67999 10.3652 2.68653C10.2452 2.90653 10.1052 3.1932 10.0119 3.4132C8.95119 3.2532 7.87253 3.2532 6.81186 3.4132C6.71853 3.18653 6.57853 2.90653 6.45186 2.68653C6.4452 2.6732 6.42519 2.66653 6.40519 2.66653C5.40519 2.83987 4.45186 3.13987 3.55853 3.5532C3.55186 3.5532 3.5452 3.55987 3.53853 3.56653C1.7252 6.27987 1.2252 8.91987 1.47186 11.5332C1.47186 11.5465 1.47853 11.5599 1.49186 11.5665C2.69186 12.4465 3.8452 12.9799 4.9852 13.3332C5.0052 13.3399 5.0252 13.3332 5.03186 13.3199C5.29853 12.9532 5.53853 12.5665 5.74519 12.1599C5.75853 12.1332 5.7452 12.1065 5.71853 12.0999C5.33853 11.9532 4.97853 11.7799 4.6252 11.5799C4.59853 11.5665 4.59853 11.5265 4.61853 11.5065C4.69186 11.4532 4.7652 11.3932 4.83853 11.3399C4.85186 11.3265 4.87186 11.3265 4.8852 11.3332C7.17853 12.3799 9.65186 12.3799 11.9185 11.3332C11.9319 11.3265 11.9519 11.3265 11.9652 11.3399C12.0385 11.3999 12.1119 11.4532 12.1852 11.5132C12.2119 11.5332 12.2119 11.5732 12.1785 11.5865C11.8319 11.7932 11.4652 11.9599 11.0852 12.1065C11.0585 12.1132 11.0519 12.1465 11.0585 12.1665C11.2719 12.5732 11.5119 12.9599 11.7719 13.3265C11.7919 13.3332 11.8119 13.3399 11.8319 13.3332C12.9785 12.9799 14.1319 12.4465 15.3319 11.5665C15.3452 11.5599 15.3519 11.5465 15.3519 11.5332C15.6452 8.5132 14.8652 5.8932 13.2852 3.56653C13.2785 3.55987 13.2719 3.5532 13.2585 3.5532ZM6.09186 9.93987C5.4052 9.93987 4.83186 9.30653 4.83186 8.52653C4.83186 7.74653 5.39186 7.1132 6.09186 7.1132C6.79853 7.1132 7.35853 7.7532 7.35186 8.52653C7.35186 9.30653 6.79186 9.93987 6.09186 9.93987ZM10.7385 9.93987C10.0519 9.93987 9.47853 9.30653 9.47853 8.52653C9.47853 7.74653 10.0385 7.1132 10.7385 7.1132C11.4452 7.1132 12.0052 7.7532 11.9985 8.52653C11.9985 9.30653 11.4452 9.93987 10.7385 9.93987Z" fill="white"/>
</svg>
    