<svg width="20" height="10" viewBox="0 0 20 10" fill="none" xmlns="http://www.w3.org/2000/svg">
<path d="M4.54948 1.70589C4.98242 1.70589 5.40207 1.80843 5.80843 2.01351C6.21479 2.21479 6.52431 2.47683 6.73698 2.79964C6.94206 3.10726 7.07878 3.46615 7.14714 3.8763C7.2079 4.15733 7.23828 4.60547 7.23828 5.2207H2.76644C2.78543 5.83973 2.93164 6.33724 3.20508 6.71322C3.47852 7.08539 3.90196 7.27148 4.47542 7.27148C5.01091 7.27148 5.43815 7.09489 5.75716 6.7417C5.93945 6.53662 6.06858 6.29926 6.14453 6.02962H7.15283C7.12625 6.25369 7.037 6.50434 6.88509 6.78158C6.73698 7.05501 6.56988 7.27908 6.38379 7.45378C6.07237 7.75759 5.6869 7.96267 5.22738 8.06901C4.98052 8.12977 4.70139 8.16016 4.38997 8.16016C3.63043 8.16016 2.98671 7.88482 2.45882 7.33415C1.93094 6.77968 1.66699 6.00494 1.66699 5.00993C1.66699 4.03011 1.93283 3.23448 2.46452 2.62305C2.9962 2.01161 3.69119 1.70589 4.54948 1.70589ZM6.18441 4.40609C6.14263 3.96175 6.04579 3.60666 5.89388 3.34082C5.61285 2.84711 5.14383 2.60026 4.48682 2.60026C4.0159 2.60026 3.62093 2.77116 3.30192 3.11296C2.98291 3.45095 2.81391 3.882 2.79492 4.40609H6.18441Z" fill="black"/>
<path d="M9.11247 6.02962C9.14285 6.37142 9.2283 6.63346 9.36882 6.81575C9.62706 7.14616 10.0752 7.31136 10.7132 7.31136C11.093 7.31136 11.4272 7.22971 11.7158 7.06641C12.0044 6.89931 12.1488 6.64296 12.1488 6.29736C12.1488 6.03532 12.0329 5.83594 11.8013 5.69922C11.6532 5.61567 11.3607 5.51883 10.924 5.40869L10.1094 5.20361C9.58908 5.07449 9.20551 4.93018 8.95866 4.77067C8.51812 4.49344 8.29785 4.10986 8.29785 3.61995C8.29785 3.0427 8.50483 2.57557 8.91878 2.21859C9.33653 1.8616 9.8967 1.68311 10.5993 1.68311C11.5183 1.68311 12.181 1.95275 12.5874 2.49202C12.8419 2.83382 12.9653 3.2022 12.9577 3.59717H11.9893C11.9703 3.36551 11.8886 3.15473 11.7443 2.96484C11.5088 2.6952 11.1006 2.56038 10.5195 2.56038C10.1322 2.56038 9.83784 2.63444 9.63656 2.78255C9.43907 2.93066 9.34033 3.12625 9.34033 3.3693C9.34033 3.63515 9.47135 3.84782 9.7334 4.00732C9.88531 4.10227 10.1094 4.18582 10.4056 4.25798L11.0835 4.42318C11.8203 4.60167 12.314 4.77447 12.5646 4.94157C12.9634 5.20361 13.1628 5.61567 13.1628 6.17773C13.1628 6.72081 12.9558 7.18983 12.5418 7.5848C12.1317 7.97976 11.505 8.17725 10.6619 8.17725C9.75429 8.17725 9.11057 7.97217 8.73079 7.56201C8.35482 7.14806 8.15354 6.63726 8.12695 6.02962H9.11247Z" fill="black"/>
<path d="M16.689 1.66602C17.3764 1.66602 17.9346 1.83312 18.3638 2.16732C18.7967 2.50152 19.0569 3.07688 19.1442 3.89339H18.1473C18.0865 3.51742 17.9479 3.206 17.7314 2.95915C17.515 2.7085 17.1675 2.58317 16.689 2.58317C16.0358 2.58317 15.5686 2.90218 15.2876 3.5402C15.1053 3.95416 15.0142 4.46495 15.0142 5.07259C15.0142 5.68403 15.1433 6.19862 15.4015 6.61637C15.6598 7.03412 16.0661 7.243 16.6206 7.243C17.046 7.243 17.3821 7.11388 17.6289 6.85563C17.8796 6.59359 18.0524 6.2366 18.1473 5.78467H19.1442C19.0303 6.59359 18.7454 7.18603 18.2897 7.56201C17.834 7.93419 17.251 8.12028 16.5409 8.12028C15.7433 8.12028 15.1072 7.82975 14.6325 7.2487C14.1578 6.66384 13.9204 5.93468 13.9204 5.0612C13.9204 3.99023 14.1806 3.15663 14.7008 2.56038C15.2211 1.96414 15.8838 1.66602 16.689 1.66602Z" fill="black"/>
</svg>
