<svg width="20" height="20" viewBox="0 0 20 20" fill="none" xmlns="http://www.w3.org/2000/svg">
<path d="M1.80449 16.2922C1.95949 16.5255 2.22033 16.6663 2.50033 16.6663H15.0003C15.3337 16.6663 15.6353 16.468 15.7662 16.1613L18.2662 10.328C18.3209 10.2013 18.3433 10.0629 18.3313 9.9254C18.3192 9.78787 18.2731 9.65551 18.1971 9.54025C18.1211 9.42499 18.0177 9.33046 17.896 9.26518C17.7744 9.1999 17.6384 9.16594 17.5003 9.16634H16.667V6.66634C16.667 5.74717 15.9195 4.99967 15.0003 4.99967H9.45449L7.32449 3.33301H3.33366C2.41449 3.33301 1.66699 4.08051 1.66699 4.99967V15.833H1.67283C1.67097 15.9956 1.71674 16.1552 1.80449 16.2922V16.2922ZM15.0003 6.66634V9.16634H5.00033C4.66699 9.16634 4.36533 9.36467 4.23449 9.67134L3.33366 11.7738V6.66634H15.0003Z" fill="black"/>
</svg>
