<svg width="40" height="40" viewBox="0 0 40 40" fill="none" xmlns="http://www.w3.org/2000/svg">
<path d="M20 4.39999C17.8989 4.39999 15.8183 4.81385 13.8771 5.61792C11.9359 6.422 10.172 7.60055 8.68629 9.08629C5.68571 12.0869 4 16.1565 4 20.4C4 27.472 8.592 33.472 14.944 35.6C15.744 35.728 16 35.232 16 34.8V32.096C11.568 33.056 10.624 29.952 10.624 29.952C9.888 28.096 8.848 27.6 8.848 27.6C7.392 26.608 8.96 26.64 8.96 26.64C10.56 26.752 11.408 28.288 11.408 28.288C12.8 30.72 15.152 30 16.064 29.616C16.208 28.576 16.624 27.872 17.072 27.472C13.52 27.072 9.792 25.696 9.792 19.6C9.792 17.824 10.4 16.4 11.44 15.264C11.28 14.864 10.72 13.2 11.6 11.04C11.6 11.04 12.944 10.608 16 12.672C17.264 12.32 18.64 12.144 20 12.144C21.36 12.144 22.736 12.32 24 12.672C27.056 10.608 28.4 11.04 28.4 11.04C29.28 13.2 28.72 14.864 28.56 15.264C29.6 16.4 30.208 17.824 30.208 19.6C30.208 25.712 26.464 27.056 22.896 27.456C23.472 27.952 24 28.928 24 30.416V34.8C24 35.232 24.256 35.744 25.072 35.6C31.424 33.456 36 27.472 36 20.4C36 18.2988 35.5861 16.2183 34.7821 14.2771C33.978 12.3358 32.7994 10.572 31.3137 9.08629C29.828 7.60055 28.0641 6.422 26.1229 5.61792C24.1817 4.81385 22.1012 4.39999 20 4.39999Z" fill="black"/>
</svg>
