<svg width="16" height="16" viewBox="0 0 16 16" fill="none" xmlns="http://www.w3.org/2000/svg">
<path d="M8 14C6.46667 14 5.13044 13.4916 3.99133 12.4747C2.85222 11.4578 2.19956 10.1884 2.03333 8.66667H3.4C3.55556 9.82222 4.06956 10.7778 4.942 11.5333C5.81444 12.2889 6.83378 12.6667 8 12.6667C9.3 12.6667 10.4029 12.2138 11.3087 11.308C12.2144 10.4022 12.6671 9.29956 12.6667 8C12.6667 6.7 12.2138 5.59711 11.308 4.69133C10.4022 3.78556 9.29956 3.33289 8 3.33333C7.23333 3.33333 6.51667 3.51111 5.85 3.86667C5.18333 4.22222 4.62222 4.71111 4.16667 5.33333H6V6.66667H2V2.66667H3.33333V4.23333C3.9 3.52222 4.59178 2.97222 5.40867 2.58333C6.22556 2.19444 7.08933 2 8 2C8.83333 2 9.614 2.15844 10.342 2.47533C11.07 2.79222 11.7033 3.21978 12.242 3.758C12.7807 4.29711 13.2084 4.93044 13.5253 5.658C13.8422 6.38556 14.0004 7.16622 14 8C14 8.83333 13.8416 9.614 13.5247 10.342C13.2078 11.07 12.7802 11.7033 12.242 12.242C11.7029 12.7807 11.0696 13.2084 10.342 13.5253C9.61444 13.8422 8.83378 14.0004 8 14ZM9.86667 10.8L7.33333 8.26667V4.66667H8.66667V7.73333L10.8 9.86667L9.86667 10.8Z" fill="white"/>
</svg>
