<svg width="20" height="20" viewBox="0 0 20 20" fill="none" xmlns="http://www.w3.org/2000/svg">
<g clip-path="url(#clip0_716_3691)">
<path d="M18.3337 16.6662V10.1446C18.3337 9.69083 18.2411 9.24186 18.0616 8.82517C17.882 8.40847 17.6193 8.03282 17.2895 7.72122L11.1453 1.91456C10.8359 1.62199 10.4262 1.45898 10.0003 1.45898C9.57447 1.45898 9.16477 1.62199 8.85533 1.91456L2.71116 7.72122C2.38135 8.03282 2.11862 8.40847 1.93907 8.82517C1.75953 9.24186 1.66694 9.69083 1.66699 10.1446V16.6662C1.66699 17.1083 1.84259 17.5322 2.15515 17.8447C2.46771 18.1573 2.89163 18.3329 3.33366 18.3329H16.667C17.109 18.3329 17.5329 18.1573 17.8455 17.8447C18.1581 17.5322 18.3337 17.1083 18.3337 16.6662Z" stroke="#474747" stroke-width="1.4" stroke-linecap="round" stroke-linejoin="round"/>
</g>
<defs>
<clipPath id="clip0_716_3691">
<rect width="20" height="20" fill="white"/>
</clipPath>
</defs>
</svg>
