<svg width="20" height="20" viewBox="0 0 20 20" fill="none" xmlns="http://www.w3.org/2000/svg">
<path fill-rule="evenodd" clip-rule="evenodd" d="M10.063 1C10.6153 1 11.063 1.44772 11.063 2V3.79177C11.063 4.34405 10.6153 4.79177 10.063 4.79177C9.51072 4.79177 9.06301 4.34405 9.06301 3.79177V2C9.06301 1.44772 9.51072 1 10.063 1ZM13.2301 9.64649C13.2301 11.6256 11.6257 13.23 9.64652 13.23C7.66739 13.23 6.06299 11.6256 6.06299 9.64649C6.06299 7.66736 7.66739 6.06296 9.64652 6.06296C11.6257 6.06296 13.2301 7.66736 13.2301 9.64649ZM11.063 16.3341C11.063 15.7819 10.6153 15.3341 10.063 15.3341C9.51072 15.3341 9.06301 15.7819 9.06301 16.3341V18.1259C9.06301 18.6782 9.51072 19.1259 10.063 19.1259C10.6153 19.1259 11.063 18.6782 11.063 18.1259V16.3341ZM19.126 10.0629C19.126 10.6152 18.6783 11.0629 18.126 11.0629H16.3342C15.7819 11.0629 15.3342 10.6152 15.3342 10.0629C15.3342 9.51066 15.7819 9.06295 16.3342 9.06295H18.126C18.6783 9.06295 19.126 9.51066 19.126 10.0629ZM3.79177 11.0629C4.34405 11.0629 4.79177 10.6152 4.79177 10.0629C4.79177 9.51066 4.34405 9.06295 3.79177 9.06295H2C1.44772 9.06295 1 9.51066 1 10.0629C1 10.6152 1.44772 11.0629 2 11.0629H3.79177ZM16.4715 3.65447C16.8621 4.04499 16.8621 4.67816 16.4715 5.06868L15.2046 6.33565C14.814 6.72617 14.1809 6.72617 13.7903 6.33565C13.3998 5.94513 13.3998 5.31196 13.7903 4.92144L15.0573 3.65447C15.4478 3.26394 16.081 3.26394 16.4715 3.65447ZM6.33567 15.2045C6.72619 14.8139 6.72619 14.1808 6.33567 13.7902C5.94514 13.3997 5.31198 13.3997 4.92145 13.7902L3.65448 15.0572C3.26396 15.4477 3.26396 16.0809 3.65448 16.4714C4.04501 16.862 4.67817 16.862 5.0687 16.4714L6.33567 15.2045ZM16.4715 16.4714C16.081 16.8619 15.4478 16.8619 15.0573 16.4714L13.7903 15.2044C13.3998 14.8139 13.3998 14.1808 13.7903 13.7902C14.1809 13.3997 14.814 13.3997 15.2046 13.7902L16.4715 15.0572C16.8621 15.4477 16.8621 16.0809 16.4715 16.4714ZM4.92145 6.33564C5.31198 6.72616 5.94514 6.72616 6.33567 6.33564C6.72619 5.94511 6.72619 5.31195 6.33567 4.92143L5.0687 3.65445C4.67817 3.26393 4.04501 3.26393 3.65448 3.65445C3.26396 4.04498 3.26396 4.67814 3.65448 5.06867L4.92145 6.33564Z" fill="black"/>
</svg>
