<svg width="16" height="17" viewBox="0 0 16 17" fill="none" xmlns="http://www.w3.org/2000/svg">
<path d="M12.5 10.5C14.16 10.5 15.5 11.84 15.5 13.5C15.5 15.16 14.16 16.5 12.5 16.5C10.84 16.5 9.5 15.16 9.5 13.5C9.5 13.26 9.53 13.04 9.59 12.81L5.21 10.51C4.66 11.12 3.88 11.5 3 11.5C1.34 11.5 0 10.16 0 8.5C0 6.84 1.34 5.5 3 5.5C3.88 5.5 4.66 5.89 5.21 6.49L9.59 4.19C9.53 3.96 9.5 3.74 9.5 3.5C9.5 1.84 10.84 0.5 12.5 0.5C14.16 0.5 15.5 1.84 15.5 3.5C15.5 5.16 14.16 6.5 12.5 6.5C11.62 6.5 10.84 6.11 10.29 5.51L5.91 7.81C6.03112 8.26203 6.03112 8.73797 5.91 9.19L10.29 11.49C10.84 10.88 11.62 10.5 12.5 10.5Z" fill="black"/>
</svg>
