<svg width="179" height="178" viewBox="0 0 179 178" fill="none" xmlns="http://www.w3.org/2000/svg">
<path fill-rule="evenodd" clip-rule="evenodd" d="M104.512 88.178C93.8452 88.7927 87.1602 86.3078 76.4916 86.924C73.8457 87.0726 71.218 87.4561 68.6395 88.07C70.2143 68.3408 84.1772 51.0821 103.164 49.9851C114.816 49.3128 126.462 56.5068 127.094 68.1853C127.715 79.6638 118.963 87.3429 104.514 88.1765L104.512 88.178ZM75.8672 128.533C64.7049 129.164 53.5497 122.429 52.944 111.5C52.3482 100.758 60.7343 93.5709 74.5767 92.7906C84.7945 92.2148 91.1996 94.5413 101.417 93.964C103.951 93.8251 106.468 93.4662 108.939 92.8914C107.433 111.355 94.0577 127.508 75.8672 128.533ZM89.5 0.00143964C40.3462 -1.86035e-08 0.5 39.8456 0.5 89C0.5 138.154 40.3462 178 89.5 178C138.654 178 178.5 138.153 178.5 89C178.5 39.847 138.654 0 89.5 0" fill="black"/>
</svg>
