<svg width="40" height="40" viewBox="0 0 40 40" fill="none" xmlns="http://www.w3.org/2000/svg">
<path fill-rule="evenodd" clip-rule="evenodd" d="M5.76858 17.7732C14.6269 13.9137 20.5339 11.3693 23.4894 10.14C31.9282 6.63006 33.6817 6.02035 34.8246 6.00021C35.0759 5.99579 35.638 6.05808 36.002 6.3535C36.3095 6.60295 36.394 6.93991 36.4345 7.17641C36.475 7.41291 36.5254 7.95167 36.4853 8.37264C36.028 13.1775 34.0493 24.8376 33.0427 30.2192C32.6167 32.4963 31.778 33.2598 30.966 33.3345C29.2014 33.4969 27.8614 32.1683 26.1523 31.048C23.4779 29.2949 21.967 28.2035 19.371 26.4928C16.3709 24.5158 18.3157 23.4292 20.0255 21.6533C20.4729 21.1886 28.2479 14.1167 28.3984 13.4752C28.4172 13.3949 28.4346 13.0958 28.257 12.9379C28.0793 12.78 27.8171 12.834 27.6278 12.877C27.3596 12.9378 23.0872 15.7618 14.8105 21.3487C13.5978 22.1815 12.4994 22.5872 11.5152 22.5659C10.4302 22.5425 8.34321 21.9525 6.79171 21.4482C4.88874 20.8296 3.37629 20.5025 3.50799 19.452C3.57659 18.9048 4.33012 18.3452 5.76858 17.7732Z" fill="black"/>
</svg>
