<svg width="40" height="40" viewBox="0 0 40 40" fill="none" xmlns="http://www.w3.org/2000/svg">
<path fill-rule="evenodd" clip-rule="evenodd" d="M4.90607 17.9867C14.3013 13.8933 20.5662 11.1948 23.7009 9.89093C32.6511 6.16825 34.5108 5.52158 35.723 5.50023C35.9896 5.49553 36.5857 5.5616 36.9719 5.87493C37.2979 6.13949 37.3876 6.49687 37.4306 6.74771C37.4735 6.99854 37.5269 7.56995 37.4844 8.01643C36.9994 13.1125 34.9008 25.4793 33.8331 31.187C33.3813 33.6021 32.4918 34.4119 31.6306 34.4911C29.7591 34.6634 28.3379 33.2543 26.5252 32.066C23.6887 30.2067 22.0862 29.0492 19.3329 27.2348C16.1509 25.1379 18.2137 23.9855 20.027 22.102C20.5016 21.6091 28.7477 14.1086 28.9074 13.4282C28.9273 13.3431 28.9458 13.0259 28.7574 12.8584C28.569 12.6909 28.2908 12.7482 28.0901 12.7937C27.8056 12.8583 23.2743 15.8534 14.496 21.7789C13.2098 22.6622 12.0448 23.0925 11.001 23.0699C9.85026 23.0451 7.63673 22.4193 5.99121 21.8844C3.9729 21.2283 2.3688 20.8815 2.50848 19.7673C2.58123 19.1869 3.38043 18.5934 4.90607 17.9867Z" fill="white"/>
</svg>
