<svg width="17" height="14" viewBox="0 0 17 14" fill="none" xmlns="http://www.w3.org/2000/svg">
<path d="M16.5573 1.5966C15.9484 1.86641 15.2943 2.04871 14.6067 2.13111C15.3162 1.70656 15.847 1.03837 16.1001 0.251224C15.4335 0.647173 14.7039 0.925878 13.9431 1.07522C13.4315 0.528951 12.7538 0.166874 12.0153 0.045205C11.2768 -0.076464 10.5188 0.0490825 9.85899 0.402353C9.19916 0.755623 8.67443 1.31685 8.36625 1.99891C8.05808 2.68096 7.9837 3.44568 8.15467 4.17433C6.80396 4.10651 5.4826 3.75544 4.27635 3.1439C3.0701 2.53236 2.00592 1.67401 1.15287 0.624575C0.861188 1.12772 0.693472 1.71109 0.693472 2.33237C0.693146 2.89166 0.830877 3.44239 1.09444 3.93569C1.35801 4.42899 1.73927 4.8496 2.20438 5.16021C1.66497 5.14305 1.13746 4.9973 0.665762 4.73509V4.77884C0.665707 5.56327 0.937049 6.32357 1.43375 6.93071C1.93044 7.53786 2.6219 7.95447 3.39079 8.10984C2.8904 8.24526 2.36578 8.26521 1.85655 8.16817C2.07349 8.84313 2.49606 9.43336 3.06511 9.85622C3.63415 10.2791 4.32119 10.5134 5.03004 10.5264C3.82673 11.471 2.34066 11.9834 0.810873 11.9812C0.539888 11.9812 0.269131 11.9654 0 11.9338C1.55282 12.9322 3.36041 13.4621 5.20651 13.46C11.4558 13.46 14.8721 8.28412 14.8721 3.79515C14.8721 3.64931 14.8684 3.50201 14.8619 3.35617C15.5264 2.8756 16.1 2.28052 16.5558 1.59879L16.5573 1.5966V1.5966Z" fill="black"/>
</svg>
