<svg width="22" height="15" viewBox="0 0 22 15" fill="none" xmlns="http://www.w3.org/2000/svg">
<path d="M20.565 2.19817C20.446 1.77396 20.2144 1.3899 19.8947 1.08682C19.5659 0.774415 19.1629 0.550947 18.7238 0.437505C17.0804 0.00433934 10.4963 0.00433944 10.4963 0.00433944C7.75143 -0.0268899 5.00726 0.110465 2.27925 0.415628C1.84013 0.537451 1.43792 0.765912 1.10839 1.08069C0.784613 1.39222 0.550092 1.77638 0.42758 2.19729C0.133284 3.78272 -0.00970536 5.39252 0.000540086 7.005C-0.0099609 8.61602 0.132677 10.2253 0.42758 11.8127C0.547466 12.2319 0.781113 12.6143 1.10577 12.9232C1.43042 13.2321 1.83471 13.4552 2.27925 13.5734C3.94453 14.0057 10.4963 14.0057 10.4963 14.0057C13.2446 14.0369 15.9923 13.8996 18.7238 13.5944C19.1629 13.4809 19.5659 13.2575 19.8947 12.9451C20.2143 12.642 20.4457 12.2579 20.5641 11.8337C20.8661 10.2489 21.0129 8.63842 21.0025 7.02512C21.0252 5.405 20.8786 3.78694 20.565 2.19729V2.19817ZM8.40308 10.0013V4.00959L13.8811 7.00587L8.40308 10.0013Z" fill="black"/>
</svg>
