<svg width="320" height="200" viewBox="0 0 320 200" fill="none" xmlns="http://www.w3.org/2000/svg">
<rect width="320" height="200" fill="white"/>
<circle cx="160" cy="117" r="20" fill="#8524EE" fill-opacity="0.2"/>
<path d="M114 101C114 101 123 70 160 70C197 70 206 101 206 101" stroke="#681AB4" stroke-width="4" stroke-linecap="round"/>
<circle cx="160" cy="110" r="18" stroke="#681AB4" stroke-width="4"/>
<path d="M110 59C110 59 120.5 64.6731 135.5 64.9994C147.139 65.2525 160 62 160 62C160 62 173.906 66.1263 186.5 64.6731C201 63 210 59 210 59L200 139L160 159L120 139L110 59Z" fill="#8524EE" fill-opacity="0.2"/>
<circle cx="160" cy="106.75" r="5" fill="white"/>
<path d="M160 107.25L163.897 119.25H156.103L160 107.25Z" fill="white"/>
<line x1="79.2679" y1="41.2971" x2="48.091" y2="23.2971" stroke="url(#paint0_linear)" stroke-width="4" stroke-linecap="round"/>
<line x1="2" y1="-2" x2="38" y2="-2" transform="matrix(-1 0 0 1 70.3206 105)" stroke="url(#paint1_linear)" stroke-width="4" stroke-linecap="round"/>
<line x1="252" y1="103" x2="288" y2="103" stroke="url(#paint2_linear)" stroke-width="4" stroke-linecap="round"/>
<line x1="2" y1="-2" x2="38" y2="-2" transform="matrix(0.866025 -0.5 -0.5 -0.866025 238.039 40.5651)" stroke="url(#paint3_linear)" stroke-width="4" stroke-linecap="round"/>
<line x1="2" y1="-2" x2="38" y2="-2" transform="matrix(-0.866025 0.5 0.5 0.866025 82 160)" stroke="url(#paint4_linear)" stroke-width="4" stroke-linecap="round"/>
<line x1="240.771" y1="159.268" x2="271.948" y2="177.268" stroke="url(#paint5_linear)" stroke-width="4" stroke-linecap="round"/>
<line x1="2" y1="-2" x2="28" y2="-2" transform="matrix(4.37114e-08 -1 -1 -4.37114e-08 159 40)" stroke="url(#paint6_linear)" stroke-width="4" stroke-linecap="round"/>
<line x1="161" y1="182" x2="161" y2="192" stroke="url(#paint7_linear)" stroke-width="4" stroke-linecap="round"/>
<defs>
<linearGradient id="paint0_linear" x1="82.5001" y1="39.6989" x2="47.8591" y2="19.6989" gradientUnits="userSpaceOnUse">
<stop offset="0.229167" stop-color="white"/>
<stop offset="0.885417" stop-color="#681AB4"/>
<stop offset="1" stop-color="#F7B930"/>
</linearGradient>
<linearGradient id="paint1_linear" x1="0" y1="1.00017" x2="40" y2="1.00017" gradientUnits="userSpaceOnUse">
<stop offset="0.229167" stop-color="white"/>
<stop offset="0.885417" stop-color="#681AB4"/>
<stop offset="1" stop-color="#F7B930"/>
</linearGradient>
<linearGradient id="paint2_linear" x1="250" y1="106" x2="290" y2="106" gradientUnits="userSpaceOnUse">
<stop offset="0.229167" stop-color="white"/>
<stop offset="0.885417" stop-color="#681AB4"/>
<stop offset="1" stop-color="#F7B930"/>
</linearGradient>
<linearGradient id="paint3_linear" x1="0" y1="1.00017" x2="40" y2="1.00017" gradientUnits="userSpaceOnUse">
<stop offset="0.229167" stop-color="white"/>
<stop offset="0.885417" stop-color="#681AB4"/>
<stop offset="1" stop-color="#F7B930"/>
</linearGradient>
<linearGradient id="paint4_linear" x1="0" y1="1.00017" x2="40" y2="1.00017" gradientUnits="userSpaceOnUse">
<stop offset="0.229167" stop-color="white"/>
<stop offset="0.885417" stop-color="#681AB4"/>
<stop offset="1" stop-color="#F7B930"/>
</linearGradient>
<linearGradient id="paint5_linear" x1="237.538" y1="160.866" x2="272.18" y2="180.866" gradientUnits="userSpaceOnUse">
<stop offset="0.229167" stop-color="white"/>
<stop offset="0.885417" stop-color="#681AB4"/>
<stop offset="1" stop-color="#F7B930"/>
</linearGradient>
<linearGradient id="paint6_linear" x1="0" y1="1.00017" x2="30" y2="1.00017" gradientUnits="userSpaceOnUse">
<stop offset="0.229167" stop-color="white"/>
<stop offset="0.885417" stop-color="#681AB4"/>
<stop offset="1" stop-color="#F7B930"/>
</linearGradient>
<linearGradient id="paint7_linear" x1="158" y1="180" x2="158" y2="194" gradientUnits="userSpaceOnUse">
<stop stop-color="white"/>
<stop offset="0.885417" stop-color="#681AB4"/>
<stop offset="1" stop-color="#F7B930"/>
</linearGradient>
</defs>
</svg>
