<svg width="320" height="200" viewBox="0 0 320 200" fill="none" xmlns="http://www.w3.org/2000/svg">
<rect width="320" height="200" fill="white"/>
<path d="M171.445 24.0377C169.874 22.7377 171.028 20.1965 173.04 20.5228L208.108 26.2098C209.634 26.4572 210.314 28.2684 209.329 29.4593L194.37 47.5298C192.574 49.7005 189.156 49.3824 187.79 46.9176L183.152 38.5449L172.619 39.6242L176.292 28.0504L171.445 24.0377Z" fill="#681AB4" fill-opacity="0.1"/>
<path d="M172.651 39.9614L176.356 28.7248L205.428 28.5371L180.389 33.6184L183.411 38.6073L172.651 39.9614Z" fill="#8524EE" fill-opacity="0.2"/>
<path d="M172.925 39.2552L176.508 28.5404L205.091 28.5689L180.542 33.4339L172.925 39.2552Z" fill="#8524EE" fill-opacity="0.2"/>
<path d="M133.64 79.4731C135.679 79.4731 136.411 76.78 134.652 75.7481L104.012 57.7677C102.679 56.9853 101 57.9467 101 59.4926L101 82.9509C101 85.7687 103.836 87.7032 106.459 86.6752L115.371 83.1832L122.796 90.7305L127.347 79.4731L133.64 79.4731Z" fill="#681AB4" fill-opacity="0.1"/>
<path d="M122.557 90.9701L126.868 79.9522L104.593 61.2695L120.641 81.1498L115.132 83.0659L122.557 90.9701Z" fill="#8524EE" fill-opacity="0.2"/>
<path d="M122.796 90.2515L126.868 79.7126L104.832 61.509L120.641 80.9102L122.796 90.2515Z" fill="#8524EE" fill-opacity="0.2"/>
<path d="M202.612 80.3594C202.629 78.1503 204.434 76.3732 206.643 76.39L227.642 76.5504C229.851 76.5673 231.628 78.3718 231.611 80.5808L231.516 93.1162C231.499 95.3252 229.694 97.1024 227.485 97.0855L207.25 96.931L204.868 96.9128L202.467 99.3588L202.612 80.3594Z" fill="#8524EE" fill-opacity="0.2"/>
<path d="M99.0298 33.9999C99.0129 31.7908 97.2085 30.0137 94.9994 30.0305L74 30.1909C71.7909 30.2078 70.0138 32.0123 70.0307 34.2213L70.1264 46.7567C70.1432 48.9658 71.9477 50.7429 74.1568 50.726L94.3919 50.5715L96.774 50.5533L99.1749 52.9993L99.0298 33.9999Z" fill="#8524EE" fill-opacity="0.2"/>
<path d="M129.148 143.298C131.035 126.853 140.34 118.215 155.473 118.741" stroke="url(#paint0_linear)" stroke-width="4" stroke-linecap="round"/>
<path d="M127.486 59.4368C129.372 42.9924 138.678 34.3546 153.81 34.8806" stroke="url(#paint1_linear)" stroke-width="4" stroke-linecap="round"/>
<path d="M183.506 97.6866C179.155 81.7164 168.65 74.5848 153.771 77.3925" stroke="url(#paint2_linear)" stroke-width="4" stroke-linecap="round"/>
<path d="M154.925 151.427C156.715 150.452 156.07 147.736 154.033 147.671L118.525 146.533C116.979 146.484 115.965 148.131 116.704 149.489L127.923 170.09C129.27 172.565 132.686 172.908 134.498 170.75L140.655 163.422L150.785 166.499L149.398 154.436L154.925 151.427Z" fill="#681AB4" fill-opacity="0.1"/>
<path d="M150.69 166.824L149.207 155.086L120.709 149.331L144.31 159.116L140.389 163.433L150.69 166.824Z" fill="#8524EE" fill-opacity="0.2"/>
<path d="M150.556 166.078L149.092 154.875L121.034 149.427L144.196 158.905L150.556 166.078Z" fill="#8524EE" fill-opacity="0.2"/>
<circle cx="26.5" cy="85.5" r="4.5" stroke="#8524EE" stroke-opacity="0.2" stroke-width="2"/>
<circle cx="94.5" cy="129.5" r="4.5" stroke="#8524EE" stroke-opacity="0.2" stroke-width="2"/>
<circle cx="284.5" cy="29.5" r="4.5" stroke="#8524EE" stroke-opacity="0.2" stroke-width="2"/>
<circle cx="282.371" cy="131.346" r="4.5" transform="rotate(-26.7776 282.371 131.346)" stroke="#8524EE" stroke-opacity="0.2" stroke-width="2"/>
<circle cx="197.125" cy="177.726" r="4.5" transform="rotate(-26.7776 197.125 177.726)" stroke="#8524EE" stroke-opacity="0.2" stroke-width="2"/>
<circle cx="31.5" cy="158.5" r="4.5" stroke="#8524EE" stroke-opacity="0.2" stroke-width="2"/>
<line x1="31.3857" y1="88.7172" x2="88.7172" y2="126.614" stroke="#8524EE" stroke-opacity="0.2" stroke-width="2" stroke-linecap="round" stroke-dasharray="2 4"/>
<path d="M205.832 178.359C243.071 175.767 258.971 167.081 279.492 140.093" stroke="#8524EE" stroke-opacity="0.2" stroke-width="2" stroke-linecap="round" stroke-dasharray="2 4"/>
<path d="M169.191 128.455C167.277 129.157 165.663 126.88 166.959 125.306L189.545 97.8834C190.528 96.6902 192.435 97.0154 192.967 98.467L201.036 120.494C202.005 123.14 200.008 125.932 197.191 125.869L187.621 125.655L183.245 135.296L175.1 126.291L169.191 128.455Z" fill="#681AB4" fill-opacity="0.1"/>
<path d="M183.553 135.439L175.715 126.576L190.205 101.371L181.974 125.558L187.806 125.463L183.553 135.439Z" fill="#8524EE" fill-opacity="0.2"/>
<path d="M183.081 134.846L175.632 126.351L190.062 101.679L181.892 125.334L183.081 134.846Z" fill="#8524EE" fill-opacity="0.2"/>
<defs>
<linearGradient id="paint0_linear" x1="125.639" y1="142.468" x2="154.889" y2="115.183" gradientUnits="userSpaceOnUse">
<stop offset="0.229167" stop-color="white"/>
<stop offset="0.885417" stop-color="#681AB4"/>
<stop offset="1" stop-color="#F7B930"/>
</linearGradient>
<linearGradient id="paint1_linear" x1="123.977" y1="58.6071" x2="153.226" y2="31.3225" gradientUnits="userSpaceOnUse">
<stop offset="0.229167" stop-color="white"/>
<stop offset="0.885417" stop-color="#681AB4"/>
<stop offset="1" stop-color="#F7B930"/>
</linearGradient>
<linearGradient id="paint2_linear" x1="186.849" y1="96.336" x2="153.811" y2="73.787" gradientUnits="userSpaceOnUse">
<stop offset="0.229167" stop-color="white"/>
<stop offset="0.885417" stop-color="#681AB4"/>
<stop offset="1" stop-color="#F7B930"/>
</linearGradient>
</defs>
</svg>
