<svg width="320" height="200" viewBox="0 0 320 200" fill="none" xmlns="http://www.w3.org/2000/svg">
<rect width="320" height="200" fill="white"/>
<line x1="2" y1="-2" x2="98" y2="-2" transform="matrix(-1 -1.74846e-07 -1.74846e-07 1 119 93)" stroke="url(#paint0_linear)" stroke-width="4" stroke-linecap="round"/>
<line x1="210" y1="70" x2="306" y2="70" stroke="url(#paint1_linear)" stroke-width="4" stroke-linecap="round"/>
<line x1="210" y1="50.5" x2="306" y2="50.5" stroke="url(#paint2_linear)" stroke-width="4" stroke-linecap="round"/>
<line x1="210" y1="130.5" x2="306" y2="130.5" stroke="url(#paint3_linear)" stroke-width="4" stroke-linecap="round"/>
<line x1="210" y1="150" x2="306" y2="150" stroke="url(#paint4_linear)" stroke-width="4" stroke-linecap="round"/>
<line x1="2" y1="-2" x2="98" y2="-2" transform="matrix(-1 -1.74846e-07 -1.74846e-07 1 119 113.5)" stroke="url(#paint5_linear)" stroke-width="4" stroke-linecap="round"/>
<line x1="2" y1="-2" x2="98" y2="-2" transform="matrix(-1 -1.74846e-07 -1.74846e-07 1 119 193.5)" stroke="url(#paint6_linear)" stroke-width="4" stroke-linecap="round"/>
<line x1="2" y1="-2" x2="98" y2="-2" transform="matrix(-1 -1.74846e-07 -1.74846e-07 1 119 173)" stroke="url(#paint7_linear)" stroke-width="4" stroke-linecap="round"/>
<line x1="2" y1="-2" x2="98" y2="-2" transform="matrix(-1 -1.74846e-07 -1.74846e-07 1 120 30.5)" stroke="url(#paint8_linear)" stroke-width="4" stroke-linecap="round"/>
<line x1="2" y1="-2" x2="98" y2="-2" transform="matrix(-1 -1.74846e-07 -1.74846e-07 1 120 11)" stroke="url(#paint9_linear)" stroke-width="4" stroke-linecap="round"/>
<path d="M22.5 9H297.5C297.5 9 307.5 9 307.5 19C307.5 29 297.5 29 297.5 29" stroke="#8524EE" stroke-opacity="0.2" stroke-width="5" stroke-linecap="round" stroke-linejoin="round"/>
<line x1="22.5" y1="28.5" x2="297.5" y2="28.5" stroke="#8524EE" stroke-opacity="0.2" stroke-width="5" stroke-linecap="round"/>
<path d="M22.5 91H297.5C297.5 91 307.5 91 307.5 101C307.5 111 297.5 111 297.5 111" stroke="#8524EE" stroke-opacity="0.2" stroke-width="5" stroke-linecap="round" stroke-linejoin="round"/>
<line x1="22.5" y1="111.5" x2="297.5" y2="111.5" stroke="#8524EE" stroke-opacity="0.2" stroke-width="5" stroke-linecap="round"/>
<path d="M22.5 171H297.5C297.5 171 307.5 171 307.5 181C307.5 191 297.5 191 297.5 191" stroke="#8524EE" stroke-opacity="0.2" stroke-width="5" stroke-linecap="round" stroke-linejoin="round"/>
<line x1="22.5" y1="191.5" x2="297.5" y2="191.5" stroke="#8524EE" stroke-opacity="0.2" stroke-width="5" stroke-linecap="round"/>
<line x1="2.5" y1="-2.5" x2="277.5" y2="-2.5" transform="matrix(-1 0 0 1 308 53)" stroke="#8524EE" stroke-opacity="0.2" stroke-width="5" stroke-linecap="round"/>
<path d="M305 70H30C30 70 20 70 20 60C20 50 30 50 30 50" stroke="#8524EE" stroke-opacity="0.2" stroke-width="5" stroke-linecap="round" stroke-linejoin="round"/>
<line x1="2.5" y1="-2.5" x2="277.5" y2="-2.5" transform="matrix(-1 0 0 1 308 133)" stroke="#8524EE" stroke-opacity="0.2" stroke-width="5" stroke-linecap="round"/>
<path d="M305 150H30C30 150 20 150 20 140C20 130 30 130 30 130" stroke="#8524EE" stroke-opacity="0.2" stroke-width="5" stroke-linecap="round" stroke-linejoin="round"/>
<line x1="2" y1="-2" x2="48" y2="-2" transform="matrix(-1 -8.74228e-08 -8.74228e-08 1 77 52.5)" stroke="url(#paint10_linear)" stroke-width="4" stroke-linecap="round"/>
<line x1="2" y1="-2" x2="48" y2="-2" transform="matrix(-1 -8.74228e-08 -8.74228e-08 1 233 52.5)" stroke="url(#paint11_linear)" stroke-width="4" stroke-linecap="round"/>
<line x1="119" y1="90.5" x2="165" y2="90.5" stroke="url(#paint12_linear)" stroke-width="4" stroke-linecap="round"/>
<line x1="2" y1="-2" x2="48" y2="-2" transform="matrix(-1 -8.74228e-08 -8.74228e-08 1 273 92.5)" stroke="url(#paint13_linear)" stroke-width="4" stroke-linecap="round"/>
<line x1="2" y1="-2" x2="48" y2="-2" transform="matrix(-1 -8.74228e-08 -8.74228e-08 1 77 132.5)" stroke="url(#paint14_linear)" stroke-width="4" stroke-linecap="round"/>
<line x1="2" y1="-2" x2="48" y2="-2" transform="matrix(-1 -8.74228e-08 -8.74228e-08 1 254 132.5)" stroke="url(#paint15_linear)" stroke-width="4" stroke-linecap="round"/>
<line x1="85" y1="170.5" x2="131" y2="170.5" stroke="url(#paint16_linear)" stroke-width="4" stroke-linecap="round"/>
<line x1="2" y1="-2" x2="48" y2="-2" transform="matrix(-1 -8.74228e-08 -8.74228e-08 1 275 172.5)" stroke="url(#paint17_linear)" stroke-width="4" stroke-linecap="round"/>
<line x1="144" y1="191.5" x2="190" y2="191.5" stroke="url(#paint18_linear)" stroke-width="4" stroke-linecap="round"/>
<line x1="252" y1="191.5" x2="298" y2="191.5" stroke="url(#paint19_linear)" stroke-width="4" stroke-linecap="round"/>
<line x1="55" y1="150" x2="101" y2="150" stroke="url(#paint20_linear)" stroke-width="4" stroke-linecap="round"/>
<line x1="2" y1="-2" x2="48" y2="-2" transform="matrix(-1 -8.74228e-08 -8.74228e-08 1 204 152)" stroke="url(#paint21_linear)" stroke-width="4" stroke-linecap="round"/>
<line x1="85" y1="111.5" x2="131" y2="111.5" stroke="url(#paint22_linear)" stroke-width="4" stroke-linecap="round"/>
<line x1="252" y1="111.5" x2="298" y2="111.5" stroke="url(#paint23_linear)" stroke-width="4" stroke-linecap="round"/>
<line x1="35" y1="70" x2="81" y2="70" stroke="url(#paint24_linear)" stroke-width="4" stroke-linecap="round"/>
<line x1="2" y1="-2" x2="48" y2="-2" transform="matrix(-1 -8.74228e-08 -8.74228e-08 1 204 72)" stroke="url(#paint25_linear)" stroke-width="4" stroke-linecap="round"/>
<line x1="91" y1="28.5" x2="137" y2="28.5" stroke="url(#paint26_linear)" stroke-width="4" stroke-linecap="round"/>
<line x1="256" y1="28.5" x2="302" y2="28.5" stroke="url(#paint27_linear)" stroke-width="4" stroke-linecap="round"/>
<line x1="135" y1="9" x2="181" y2="9" stroke="url(#paint28_linear)" stroke-width="4" stroke-linecap="round"/>
<line x1="2" y1="-2" x2="48" y2="-2" transform="matrix(-1 -8.74228e-08 -8.74228e-08 1 275 11)" stroke="url(#paint29_linear)" stroke-width="4" stroke-linecap="round"/>
<defs>
<linearGradient id="paint0_linear" x1="0" y1="1.00017" x2="100" y2="1.00017" gradientUnits="userSpaceOnUse">
<stop offset="0.380208" stop-color="white"/>
<stop offset="0.885417" stop-color="#681AB4"/>
<stop offset="1" stop-color="#F7B930"/>
</linearGradient>
<linearGradient id="paint1_linear" x1="208" y1="73.0002" x2="308" y2="73.0001" gradientUnits="userSpaceOnUse">
<stop offset="0.380208" stop-color="white"/>
<stop offset="0.885417" stop-color="#681AB4"/>
<stop offset="1" stop-color="#F7B930"/>
</linearGradient>
<linearGradient id="paint2_linear" x1="208" y1="53.5002" x2="308" y2="53.5001" gradientUnits="userSpaceOnUse">
<stop offset="0.380208" stop-color="white"/>
<stop offset="0.885417" stop-color="#681AB4"/>
<stop offset="1" stop-color="#F7B930"/>
</linearGradient>
<linearGradient id="paint3_linear" x1="208" y1="133.5" x2="308" y2="133.5" gradientUnits="userSpaceOnUse">
<stop offset="0.380208" stop-color="white"/>
<stop offset="0.885417" stop-color="#681AB4"/>
<stop offset="1" stop-color="#F7B930"/>
</linearGradient>
<linearGradient id="paint4_linear" x1="208" y1="153" x2="308" y2="153" gradientUnits="userSpaceOnUse">
<stop offset="0.380208" stop-color="white"/>
<stop offset="0.885417" stop-color="#681AB4"/>
<stop offset="1" stop-color="#F7B930"/>
</linearGradient>
<linearGradient id="paint5_linear" x1="0" y1="1.00017" x2="100" y2="1.00017" gradientUnits="userSpaceOnUse">
<stop offset="0.380208" stop-color="white"/>
<stop offset="0.885417" stop-color="#681AB4"/>
<stop offset="1" stop-color="#F7B930"/>
</linearGradient>
<linearGradient id="paint6_linear" x1="0" y1="1.00017" x2="100" y2="1.00017" gradientUnits="userSpaceOnUse">
<stop offset="0.380208" stop-color="white"/>
<stop offset="0.885417" stop-color="#681AB4"/>
<stop offset="1" stop-color="#F7B930"/>
</linearGradient>
<linearGradient id="paint7_linear" x1="0" y1="1.00017" x2="100" y2="1.00017" gradientUnits="userSpaceOnUse">
<stop offset="0.380208" stop-color="white"/>
<stop offset="0.885417" stop-color="#681AB4"/>
<stop offset="1" stop-color="#F7B930"/>
</linearGradient>
<linearGradient id="paint8_linear" x1="0" y1="1.00017" x2="100" y2="1.00017" gradientUnits="userSpaceOnUse">
<stop offset="0.380208" stop-color="white"/>
<stop offset="0.885417" stop-color="#681AB4"/>
<stop offset="1" stop-color="#F7B930"/>
</linearGradient>
<linearGradient id="paint9_linear" x1="0" y1="1.00017" x2="100" y2="1.00017" gradientUnits="userSpaceOnUse">
<stop offset="0.380208" stop-color="white"/>
<stop offset="0.885417" stop-color="#681AB4"/>
<stop offset="1" stop-color="#F7B930"/>
</linearGradient>
<linearGradient id="paint10_linear" x1="0" y1="1.00017" x2="50" y2="1.00017" gradientUnits="userSpaceOnUse">
<stop offset="0.046875" stop-color="white" stop-opacity="0"/>
<stop offset="0.885417" stop-color="#681AB4"/>
<stop offset="1" stop-color="#F7B930"/>
</linearGradient>
<linearGradient id="paint11_linear" x1="0" y1="1.00017" x2="50" y2="1.00017" gradientUnits="userSpaceOnUse">
<stop offset="0.046875" stop-color="white" stop-opacity="0"/>
<stop offset="0.885417" stop-color="#681AB4"/>
<stop offset="1" stop-color="#F7B930"/>
</linearGradient>
<linearGradient id="paint12_linear" x1="117" y1="93.5002" x2="167" y2="93.5002" gradientUnits="userSpaceOnUse">
<stop offset="0.046875" stop-color="white" stop-opacity="0"/>
<stop offset="0.885417" stop-color="#681AB4"/>
<stop offset="1" stop-color="#F7B930"/>
</linearGradient>
<linearGradient id="paint13_linear" x1="0" y1="1.00017" x2="50" y2="1.00017" gradientUnits="userSpaceOnUse">
<stop offset="0.046875" stop-color="white" stop-opacity="0"/>
<stop offset="0.885417" stop-color="#681AB4"/>
<stop offset="1" stop-color="#F7B930"/>
</linearGradient>
<linearGradient id="paint14_linear" x1="0" y1="1.00017" x2="50" y2="1.00017" gradientUnits="userSpaceOnUse">
<stop offset="0.046875" stop-color="white" stop-opacity="0"/>
<stop offset="0.885417" stop-color="#681AB4"/>
<stop offset="1" stop-color="#F7B930"/>
</linearGradient>
<linearGradient id="paint15_linear" x1="0" y1="1.00017" x2="50" y2="1.00017" gradientUnits="userSpaceOnUse">
<stop offset="0.046875" stop-color="white" stop-opacity="0"/>
<stop offset="0.885417" stop-color="#681AB4"/>
<stop offset="1" stop-color="#F7B930"/>
</linearGradient>
<linearGradient id="paint16_linear" x1="83" y1="173.5" x2="133" y2="173.5" gradientUnits="userSpaceOnUse">
<stop offset="0.046875" stop-color="white" stop-opacity="0"/>
<stop offset="0.885417" stop-color="#681AB4"/>
<stop offset="1" stop-color="#F7B930"/>
</linearGradient>
<linearGradient id="paint17_linear" x1="0" y1="1.00017" x2="50" y2="1.00017" gradientUnits="userSpaceOnUse">
<stop offset="0.046875" stop-color="white" stop-opacity="0"/>
<stop offset="0.885417" stop-color="#681AB4"/>
<stop offset="1" stop-color="#F7B930"/>
</linearGradient>
<linearGradient id="paint18_linear" x1="142" y1="194.5" x2="192" y2="194.5" gradientUnits="userSpaceOnUse">
<stop offset="0.046875" stop-color="white" stop-opacity="0"/>
<stop offset="0.885417" stop-color="#681AB4"/>
<stop offset="1" stop-color="#F7B930"/>
</linearGradient>
<linearGradient id="paint19_linear" x1="250" y1="194.5" x2="300" y2="194.5" gradientUnits="userSpaceOnUse">
<stop offset="0.046875" stop-color="white" stop-opacity="0"/>
<stop offset="0.885417" stop-color="#681AB4"/>
<stop offset="1" stop-color="#F7B930"/>
</linearGradient>
<linearGradient id="paint20_linear" x1="53" y1="153" x2="103" y2="153" gradientUnits="userSpaceOnUse">
<stop offset="0.046875" stop-color="white" stop-opacity="0"/>
<stop offset="0.885417" stop-color="#681AB4"/>
<stop offset="1" stop-color="#F7B930"/>
</linearGradient>
<linearGradient id="paint21_linear" x1="0" y1="1.00017" x2="50" y2="1.00017" gradientUnits="userSpaceOnUse">
<stop offset="0.046875" stop-color="white" stop-opacity="0"/>
<stop offset="0.885417" stop-color="#681AB4"/>
<stop offset="1" stop-color="#F7B930"/>
</linearGradient>
<linearGradient id="paint22_linear" x1="83" y1="114.5" x2="133" y2="114.5" gradientUnits="userSpaceOnUse">
<stop offset="0.046875" stop-color="white" stop-opacity="0"/>
<stop offset="0.885417" stop-color="#681AB4"/>
<stop offset="1" stop-color="#F7B930"/>
</linearGradient>
<linearGradient id="paint23_linear" x1="250" y1="114.5" x2="300" y2="114.5" gradientUnits="userSpaceOnUse">
<stop offset="0.046875" stop-color="white" stop-opacity="0"/>
<stop offset="0.885417" stop-color="#681AB4"/>
<stop offset="1" stop-color="#F7B930"/>
</linearGradient>
<linearGradient id="paint24_linear" x1="33" y1="73.0002" x2="83" y2="73.0002" gradientUnits="userSpaceOnUse">
<stop offset="0.046875" stop-color="white" stop-opacity="0"/>
<stop offset="0.885417" stop-color="#681AB4"/>
<stop offset="1" stop-color="#F7B930"/>
</linearGradient>
<linearGradient id="paint25_linear" x1="0" y1="1.00017" x2="50" y2="1.00017" gradientUnits="userSpaceOnUse">
<stop offset="0.046875" stop-color="white" stop-opacity="0"/>
<stop offset="0.885417" stop-color="#681AB4"/>
<stop offset="1" stop-color="#F7B930"/>
</linearGradient>
<linearGradient id="paint26_linear" x1="89" y1="31.5002" x2="139" y2="31.5002" gradientUnits="userSpaceOnUse">
<stop offset="0.046875" stop-color="white" stop-opacity="0"/>
<stop offset="0.885417" stop-color="#681AB4"/>
<stop offset="1" stop-color="#F7B930"/>
</linearGradient>
<linearGradient id="paint27_linear" x1="254" y1="31.5002" x2="304" y2="31.5002" gradientUnits="userSpaceOnUse">
<stop offset="0.046875" stop-color="white" stop-opacity="0"/>
<stop offset="0.885417" stop-color="#681AB4"/>
<stop offset="1" stop-color="#F7B930"/>
</linearGradient>
<linearGradient id="paint28_linear" x1="133" y1="12.0002" x2="183" y2="12.0002" gradientUnits="userSpaceOnUse">
<stop offset="0.046875" stop-color="white" stop-opacity="0"/>
<stop offset="0.885417" stop-color="#681AB4"/>
<stop offset="1" stop-color="#F7B930"/>
</linearGradient>
<linearGradient id="paint29_linear" x1="0" y1="1.00017" x2="50" y2="1.00017" gradientUnits="userSpaceOnUse">
<stop offset="0.046875" stop-color="white" stop-opacity="0"/>
<stop offset="0.885417" stop-color="#681AB4"/>
<stop offset="1" stop-color="#F7B930"/>
</linearGradient>
</defs>
</svg>
