<svg width="320" height="202" viewBox="0 0 320 202" fill="none" xmlns="http://www.w3.org/2000/svg">
<rect y="1" width="320" height="200" fill="white"/>
<circle cx="160" cy="101" r="3" fill="#F7B930"/>
<path d="M218.281 159.807C233.791 165.589 245.711 161.217 252.11 147.494" stroke="url(#paint0_linear)" stroke-width="4" stroke-linecap="round"/>
<path d="M249.836 171.972C261.185 184.022 273.809 185.377 285.621 175.904" stroke="url(#paint1_linear)" stroke-width="4" stroke-linecap="round"/>
<path d="M265.853 155.422C280.267 163.559 292.724 161.106 301.191 148.553" stroke="url(#paint2_linear)" stroke-width="4" stroke-linecap="round"/>
<path d="M250 127.313C265.509 133.095 277.43 128.723 283.829 115" stroke="url(#paint3_linear)" stroke-width="4" stroke-linecap="round"/>
<path d="M273.721 91.428C289.726 87.2045 296.941 76.757 294.251 61.8559" stroke="url(#paint4_linear)" stroke-width="4" stroke-linecap="round"/>
<path d="M232.152 63.4434C239.781 48.7543 236.895 36.39 224.054 28.366" stroke="url(#paint5_linear)" stroke-width="4" stroke-linecap="round"/>
<path d="M174.06 36.0812C168.52 20.4835 157.509 14.1622 142.883 18.0812" stroke="url(#paint6_linear)" stroke-width="4" stroke-linecap="round"/>
<path d="M103.889 43.1042C88.3793 37.3219 76.459 41.6938 70.0597 55.417" stroke="url(#paint7_linear)" stroke-width="4" stroke-linecap="round"/>
<path d="M79.3735 85.5309C62.8218 85.4018 53.1156 93.587 51.7959 108.671" stroke="url(#paint8_linear)" stroke-width="4" stroke-linecap="round"/>
<path d="M42.3235 113.585C26.1955 117.309 18.6591 127.527 20.8835 142.505" stroke="url(#paint9_linear)" stroke-width="4" stroke-linecap="round"/>
<path d="M71.8262 124.192C55.5539 127.224 47.5879 137.11 49.1706 152.169" stroke="url(#paint10_linear)" stroke-width="4" stroke-linecap="round"/>
<path d="M240.891 110.599C256.489 105.059 262.81 94.0479 258.891 79.422" stroke="url(#paint11_linear)" stroke-width="4" stroke-linecap="round"/>
<path d="M250 67.1769C265.598 61.6372 271.919 50.6259 268 36" stroke="url(#paint12_linear)" stroke-width="4" stroke-linecap="round"/>
<path d="M247.806 42.0397C255.281 27.2719 252.266 14.9384 239.342 7.04867" stroke="url(#paint13_linear)" stroke-width="4" stroke-linecap="round"/>
<path d="M285.25 50.7571C295.429 37.7044 294.844 25.0211 283.68 14.7914" stroke="url(#paint14_linear)" stroke-width="4" stroke-linecap="round"/>
<path d="M290.013 120.198C305.983 115.849 313.116 105.345 310.31 90.4655" stroke="url(#paint15_linear)" stroke-width="4" stroke-linecap="round"/>
<path d="M85.4329 134.057C77.0452 148.327 79.2807 160.826 91.6842 169.511" stroke="url(#paint16_linear)" stroke-width="4" stroke-linecap="round"/>
<path d="M64.7915 156.357C54.2748 169.139 54.5276 181.833 65.4198 192.352" stroke="url(#paint17_linear)" stroke-width="4" stroke-linecap="round"/>
<path d="M107.595 166.052C107.466 182.603 115.651 192.31 130.736 193.629" stroke="url(#paint18_linear)" stroke-width="4" stroke-linecap="round"/>
<path d="M147.943 168.664C156.107 183.063 168.049 187.376 181.772 180.977" stroke="url(#paint19_linear)" stroke-width="4" stroke-linecap="round"/>
<path d="M196.914 175.75C208.108 187.943 220.714 189.46 232.646 180.137" stroke="url(#paint20_linear)" stroke-width="4" stroke-linecap="round"/>
<path d="M214.639 139.139C230.962 136.392 239.099 126.646 237.779 111.561" stroke="url(#paint21_linear)" stroke-width="4" stroke-linecap="round"/>
<path d="M219.565 97.4017C232.327 86.8614 234.501 74.3522 225.816 61.9487" stroke="url(#paint22_linear)" stroke-width="4" stroke-linecap="round"/>
<path d="M203.576 62.7982C203.705 46.2465 195.52 36.5403 180.436 35.2206" stroke="url(#paint23_linear)" stroke-width="4" stroke-linecap="round"/>
<path d="M203.779 37.769C206.21 21.3964 199.456 10.6455 184.702 7.23931" stroke="url(#paint24_linear)" stroke-width="4" stroke-linecap="round"/>
<path d="M151.415 46.3307C139.398 34.948 126.717 34.3147 115.464 44.4466" stroke="url(#paint25_linear)" stroke-width="4" stroke-linecap="round"/>
<path d="M128.862 21.2244C117.045 9.6337 104.377 8.77917 92.9493 18.7131" stroke="url(#paint26_linear)" stroke-width="4" stroke-linecap="round"/>
<path d="M86.6223 23.7297C72.6474 14.8597 60.08 16.6671 50.9764 28.7668" stroke="url(#paint27_linear)" stroke-width="4" stroke-linecap="round"/>
<path d="M58.0627 69.2386C41.8303 66.0009 30.7587 72.216 26.6274 86.7834" stroke="url(#paint28_linear)" stroke-width="4" stroke-linecap="round"/>
<path d="M52.967 44.9055C37.4576 39.1233 25.5373 43.4952 19.1382 57.2184" stroke="url(#paint29_linear)" stroke-width="4" stroke-linecap="round"/>
<path d="M115.559 62.4678C99.0074 62.3387 89.3012 70.5239 87.9815 85.6081" stroke="url(#paint30_linear)" stroke-width="4" stroke-linecap="round"/>
<path d="M101.459 101.622C88.6966 112.162 86.5226 124.672 95.2077 137.075" stroke="url(#paint31_linear)" stroke-width="4" stroke-linecap="round"/>
<path d="M123.006 137.24C117.824 152.96 122.651 164.704 136.61 170.571" stroke="url(#paint32_linear)" stroke-width="4" stroke-linecap="round"/>
<path d="M170.24 160.47C185.308 167.32 197.504 163.79 204.845 150.547" stroke="url(#paint33_linear)" stroke-width="4" stroke-linecap="round"/>
<path d="M192.081 135.106C206.684 127.314 211.302 115.487 205.257 101.604" stroke="url(#paint34_linear)" stroke-width="4" stroke-linecap="round"/>
<path d="M202.054 91.051C205.781 74.9238 199.904 63.6694 185.468 59.0997" stroke="url(#paint35_linear)" stroke-width="4" stroke-linecap="round"/>
<path d="M171.277 57.8552C157.096 49.3186 144.575 51.4232 135.76 63.7351" stroke="url(#paint36_linear)" stroke-width="4" stroke-linecap="round"/>
<path d="M127.975 79.134C113.776 87.6408 109.75 99.6825 116.476 113.248" stroke="url(#paint37_linear)" stroke-width="4" stroke-linecap="round"/>
<path d="M139.109 112.371C150.452 124.426 163.075 125.787 174.892 116.319" stroke="url(#paint38_linear)" stroke-width="4" stroke-linecap="round"/>
<path d="M180.72 113.24C187.423 98.1053 183.774 85.9442 170.459 78.7332" stroke="url(#paint39_linear)" stroke-width="4" stroke-linecap="round"/>
<path d="M134.158 120.968C134.332 137.52 142.693 147.075 157.799 148.118" stroke="url(#paint40_linear)" stroke-width="4" stroke-linecap="round"/>
<path d="M163.355 74.6283C146.817 75.3069 137.522 83.9559 136.939 99.0866" stroke="url(#paint41_linear)" stroke-width="4" stroke-linecap="round"/>
<defs>
<linearGradient id="paint0_linear" x1="217.428" y1="163.31" x2="255.016" y2="149.629" gradientUnits="userSpaceOnUse">
<stop offset="0.229167" stop-color="white"/>
<stop offset="0.885417" stop-color="#681AB4"/>
<stop offset="1" stop-color="#F7B930"/>
</linearGradient>
<linearGradient id="paint1_linear" x1="247.521" y1="174.736" x2="287.282" y2="179.104" gradientUnits="userSpaceOnUse">
<stop offset="0.229167" stop-color="white"/>
<stop offset="0.885417" stop-color="#681AB4"/>
<stop offset="1" stop-color="#F7B930"/>
</linearGradient>
<linearGradient id="paint2_linear" x1="264.462" y1="158.749" x2="303.727" y2="151.116" gradientUnits="userSpaceOnUse">
<stop offset="0.229167" stop-color="white"/>
<stop offset="0.885417" stop-color="#681AB4"/>
<stop offset="1" stop-color="#F7B930"/>
</linearGradient>
<linearGradient id="paint3_linear" x1="249.147" y1="130.816" x2="286.734" y2="117.135" gradientUnits="userSpaceOnUse">
<stop offset="0.229167" stop-color="white"/>
<stop offset="0.885417" stop-color="#681AB4"/>
<stop offset="1" stop-color="#F7B930"/>
</linearGradient>
<linearGradient id="paint4_linear" x1="275.045" y1="94.7818" x2="297.857" y2="61.9239" gradientUnits="userSpaceOnUse">
<stop offset="0.229167" stop-color="white"/>
<stop offset="0.885417" stop-color="#681AB4"/>
<stop offset="1" stop-color="#F7B930"/>
</linearGradient>
<linearGradient id="paint5_linear" x1="235.525" y1="64.7172" x2="226.527" y2="25.7424" gradientUnits="userSpaceOnUse">
<stop offset="0.229167" stop-color="white"/>
<stop offset="0.885417" stop-color="#681AB4"/>
<stop offset="1" stop-color="#F7B930"/>
</linearGradient>
<linearGradient id="paint6_linear" x1="177.292" y1="34.4829" x2="142.651" y2="14.4829" gradientUnits="userSpaceOnUse">
<stop offset="0.229167" stop-color="white"/>
<stop offset="0.885417" stop-color="#681AB4"/>
<stop offset="1" stop-color="#F7B930"/>
</linearGradient>
<linearGradient id="paint7_linear" x1="104.742" y1="39.601" x2="67.1542" y2="53.2818" gradientUnits="userSpaceOnUse">
<stop offset="0.229167" stop-color="white"/>
<stop offset="0.885417" stop-color="#681AB4"/>
<stop offset="1" stop-color="#F7B930"/>
</linearGradient>
<linearGradient id="paint8_linear" x1="78.9771" y1="81.947" x2="48.3353" y2="107.659" gradientUnits="userSpaceOnUse">
<stop offset="0.229167" stop-color="white"/>
<stop offset="0.885417" stop-color="#681AB4"/>
<stop offset="1" stop-color="#F7B930"/>
</linearGradient>
<linearGradient id="paint9_linear" x1="41.1045" y1="110.192" x2="17.2823" y2="142.325" gradientUnits="userSpaceOnUse">
<stop offset="0.229167" stop-color="white"/>
<stop offset="0.885417" stop-color="#681AB4"/>
<stop offset="1" stop-color="#F7B930"/>
</linearGradient>
<linearGradient id="paint10_linear" x1="70.7532" y1="120.75" x2="45.5804" y2="151.836" gradientUnits="userSpaceOnUse">
<stop offset="0.229167" stop-color="white"/>
<stop offset="0.885417" stop-color="#681AB4"/>
<stop offset="1" stop-color="#F7B930"/>
</linearGradient>
<linearGradient id="paint11_linear" x1="242.489" y1="113.831" x2="262.489" y2="79.19" gradientUnits="userSpaceOnUse">
<stop offset="0.229167" stop-color="white"/>
<stop offset="0.885417" stop-color="#681AB4"/>
<stop offset="1" stop-color="#F7B930"/>
</linearGradient>
<linearGradient id="paint12_linear" x1="251.598" y1="70.409" x2="271.598" y2="35.768" gradientUnits="userSpaceOnUse">
<stop offset="0.229167" stop-color="white"/>
<stop offset="0.885417" stop-color="#681AB4"/>
<stop offset="1" stop-color="#F7B930"/>
</linearGradient>
<linearGradient id="paint13_linear" x1="251.192" y1="43.2782" x2="241.788" y2="4.39935" gradientUnits="userSpaceOnUse">
<stop offset="0.229167" stop-color="white"/>
<stop offset="0.885417" stop-color="#681AB4"/>
<stop offset="1" stop-color="#F7B930"/>
</linearGradient>
<linearGradient id="paint14_linear" x1="288.335" y1="52.6243" x2="286.59" y2="12.6624" gradientUnits="userSpaceOnUse">
<stop offset="0.229167" stop-color="white"/>
<stop offset="0.885417" stop-color="#681AB4"/>
<stop offset="1" stop-color="#F7B930"/>
</linearGradient>
<linearGradient id="paint15_linear" x1="291.363" y1="123.541" x2="313.915" y2="90.5052" gradientUnits="userSpaceOnUse">
<stop offset="0.229167" stop-color="white"/>
<stop offset="0.885417" stop-color="#681AB4"/>
<stop offset="1" stop-color="#F7B930"/>
</linearGradient>
<linearGradient id="paint16_linear" x1="82.131" y1="132.609" x2="89.0769" y2="172.001" gradientUnits="userSpaceOnUse">
<stop offset="0.229167" stop-color="white"/>
<stop offset="0.885417" stop-color="#681AB4"/>
<stop offset="1" stop-color="#F7B930"/>
</linearGradient>
<linearGradient id="paint17_linear" x1="61.7569" y1="154.41" x2="62.455" y2="194.404" gradientUnits="userSpaceOnUse">
<stop offset="0.229167" stop-color="white"/>
<stop offset="0.885417" stop-color="#681AB4"/>
<stop offset="1" stop-color="#F7B930"/>
</linearGradient>
<linearGradient id="paint18_linear" x1="104.011" y1="166.448" x2="129.723" y2="197.09" gradientUnits="userSpaceOnUse">
<stop offset="0.229167" stop-color="white"/>
<stop offset="0.885417" stop-color="#681AB4"/>
<stop offset="1" stop-color="#F7B930"/>
</linearGradient>
<linearGradient id="paint19_linear" x1="145.038" y1="170.799" x2="182.625" y2="184.48" gradientUnits="userSpaceOnUse">
<stop offset="0.229167" stop-color="white"/>
<stop offset="0.885417" stop-color="#681AB4"/>
<stop offset="1" stop-color="#F7B930"/>
</linearGradient>
<linearGradient id="paint20_linear" x1="194.563" y1="178.484" x2="234.265" y2="183.359" gradientUnits="userSpaceOnUse">
<stop offset="0.229167" stop-color="white"/>
<stop offset="0.885417" stop-color="#681AB4"/>
<stop offset="1" stop-color="#F7B930"/>
</linearGradient>
<linearGradient id="paint21_linear" x1="215.652" y1="142.6" x2="241.363" y2="111.958" gradientUnits="userSpaceOnUse">
<stop offset="0.229167" stop-color="white"/>
<stop offset="0.885417" stop-color="#681AB4"/>
<stop offset="1" stop-color="#F7B930"/>
</linearGradient>
<linearGradient id="paint22_linear" x1="222.172" y1="99.8923" x2="229.118" y2="60.5" gradientUnits="userSpaceOnUse">
<stop offset="0.229167" stop-color="white"/>
<stop offset="0.885417" stop-color="#681AB4"/>
<stop offset="1" stop-color="#F7B930"/>
</linearGradient>
<linearGradient id="paint23_linear" x1="207.16" y1="62.4018" x2="181.448" y2="31.76" gradientUnits="userSpaceOnUse">
<stop offset="0.229167" stop-color="white"/>
<stop offset="0.885417" stop-color="#681AB4"/>
<stop offset="1" stop-color="#F7B930"/>
</linearGradient>
<linearGradient id="paint24_linear" x1="207.383" y1="37.8752" x2="186.186" y2="3.95332" gradientUnits="userSpaceOnUse">
<stop offset="0.229167" stop-color="white"/>
<stop offset="0.885417" stop-color="#681AB4"/>
<stop offset="1" stop-color="#F7B930"/>
</linearGradient>
<linearGradient id="paint25_linear" x1="153.569" y1="43.4393" x2="113.624" y2="41.3458" gradientUnits="userSpaceOnUse">
<stop offset="0.229167" stop-color="white"/>
<stop offset="0.885417" stop-color="#681AB4"/>
<stop offset="1" stop-color="#F7B930"/>
</linearGradient>
<linearGradient id="paint26_linear" x1="131.066" y1="18.371" x2="91.1634" y2="15.5807" gradientUnits="userSpaceOnUse">
<stop offset="0.229167" stop-color="white"/>
<stop offset="0.885417" stop-color="#681AB4"/>
<stop offset="1" stop-color="#F7B930"/>
</linearGradient>
<linearGradient id="paint27_linear" x1="88.1828" y1="20.4792" x2="48.5763" y2="26.0759" gradientUnits="userSpaceOnUse">
<stop offset="0.229167" stop-color="white"/>
<stop offset="0.885417" stop-color="#681AB4"/>
<stop offset="1" stop-color="#F7B930"/>
</linearGradient>
<linearGradient id="paint28_linear" x1="58.347" y1="65.6442" x2="23.4188" y2="85.1383" gradientUnits="userSpaceOnUse">
<stop offset="0.229167" stop-color="white"/>
<stop offset="0.885417" stop-color="#681AB4"/>
<stop offset="1" stop-color="#F7B930"/>
</linearGradient>
<linearGradient id="paint29_linear" x1="53.8202" y1="41.4022" x2="16.2326" y2="55.0832" gradientUnits="userSpaceOnUse">
<stop offset="0.229167" stop-color="white"/>
<stop offset="0.885417" stop-color="#681AB4"/>
<stop offset="1" stop-color="#F7B930"/>
</linearGradient>
<linearGradient id="paint30_linear" x1="115.163" y1="58.8839" x2="84.5209" y2="84.5954" gradientUnits="userSpaceOnUse">
<stop offset="0.229167" stop-color="white"/>
<stop offset="0.885417" stop-color="#681AB4"/>
<stop offset="1" stop-color="#F7B930"/>
</linearGradient>
<linearGradient id="paint31_linear" x1="98.8517" y1="99.1315" x2="91.9057" y2="138.524" gradientUnits="userSpaceOnUse">
<stop offset="0.229167" stop-color="white"/>
<stop offset="0.885417" stop-color="#681AB4"/>
<stop offset="1" stop-color="#F7B930"/>
</linearGradient>
<linearGradient id="paint32_linear" x1="119.473" y1="136.522" x2="134.588" y2="173.556" gradientUnits="userSpaceOnUse">
<stop offset="0.229167" stop-color="white"/>
<stop offset="0.885417" stop-color="#681AB4"/>
<stop offset="1" stop-color="#F7B930"/>
</linearGradient>
<linearGradient id="paint33_linear" x1="169.144" y1="163.905" x2="207.595" y2="152.88" gradientUnits="userSpaceOnUse">
<stop offset="0.229167" stop-color="white"/>
<stop offset="0.885417" stop-color="#681AB4"/>
<stop offset="1" stop-color="#F7B930"/>
</linearGradient>
<linearGradient id="paint34_linear" x1="194.141" y1="138.065" x2="208.781" y2="100.841" gradientUnits="userSpaceOnUse">
<stop offset="0.229167" stop-color="white"/>
<stop offset="0.885417" stop-color="#681AB4"/>
<stop offset="1" stop-color="#F7B930"/>
</linearGradient>
<linearGradient id="paint35_linear" x1="205.639" y1="91.4438" x2="187.209" y2="55.9423" gradientUnits="userSpaceOnUse">
<stop offset="0.229167" stop-color="white"/>
<stop offset="0.885417" stop-color="#681AB4"/>
<stop offset="1" stop-color="#F7B930"/>
</linearGradient>
<linearGradient id="paint36_linear" x1="172.76" y1="54.5687" x2="133.297" y2="61.1019" gradientUnits="userSpaceOnUse">
<stop offset="0.229167" stop-color="white"/>
<stop offset="0.885417" stop-color="#681AB4"/>
<stop offset="1" stop-color="#F7B930"/>
</linearGradient>
<linearGradient id="paint37_linear" x1="125.77" y1="76.2806" x2="112.994" y2="114.185" gradientUnits="userSpaceOnUse">
<stop offset="0.229167" stop-color="white"/>
<stop offset="0.885417" stop-color="#681AB4"/>
<stop offset="1" stop-color="#F7B930"/>
</linearGradient>
<linearGradient id="paint38_linear" x1="136.792" y1="115.134" x2="176.551" y2="119.52" gradientUnits="userSpaceOnUse">
<stop offset="0.229167" stop-color="white"/>
<stop offset="0.885417" stop-color="#681AB4"/>
<stop offset="1" stop-color="#F7B930"/>
</linearGradient>
<linearGradient id="paint39_linear" x1="184.166" y1="114.302" x2="172.765" y2="75.961" gradientUnits="userSpaceOnUse">
<stop offset="0.229167" stop-color="white"/>
<stop offset="0.885417" stop-color="#681AB4"/>
<stop offset="1" stop-color="#F7B930"/>
</linearGradient>
<linearGradient id="paint40_linear" x1="130.582" y1="121.43" x2="156.85" y2="151.597" gradientUnits="userSpaceOnUse">
<stop offset="0.229167" stop-color="white"/>
<stop offset="0.885417" stop-color="#681AB4"/>
<stop offset="1" stop-color="#F7B930"/>
</linearGradient>
<linearGradient id="paint41_linear" x1="162.784" y1="71.0681" x2="133.434" y2="98.2439" gradientUnits="userSpaceOnUse">
<stop offset="0.229167" stop-color="white"/>
<stop offset="0.885417" stop-color="#681AB4"/>
<stop offset="1" stop-color="#F7B930"/>
</linearGradient>
</defs>
</svg>
