<?xml version="1.0" encoding="UTF-8"?>
<svg viewBox="0 0 66 66" xmlns="http://www.w3.org/2000/svg">
<path d="m33 66c18.225 0 33-14.775 33-33s-14.775-33-33-33-33 14.775-33 33 14.775 33 33 33z" fill="#FEFFFF" opacity=".1"/>
<path d="m38.078 32.129c-3.7373 0.2111-6.0794-0.6421-9.8172-0.4306-0.927 0.0511-1.8476 0.1827-2.751 0.3935 0.5517-6.7744 5.4437-12.7 12.096-13.077 4.0823-0.2309 8.1625 2.2393 8.3838 6.2494 0.2178 3.9414-2.8486 6.5782-7.911 6.8644l-5e-4 5e-4zm-10.036 13.857c-3.9108 0.2165-7.819-2.096-8.0313-5.8485-0.2087-3.6888 2.7294-6.1565 7.5791-6.4244 3.5799-0.1978 5.8239 0.6011 9.4038 0.4028 0.8876-0.0476 1.7693-0.1709 2.6353-0.3682-0.5276 6.3399-5.2138 11.886-11.587 12.238z" fill="#fff"/>
</svg>
