<svg width="34" height="34" viewBox="0 0 34 34" fill="none" xmlns="http://www.w3.org/2000/svg">
<path d="M11.3722 26.6927C11.3722 26.8298 11.2145 26.9395 11.0157 26.9395C10.7895 26.9601 10.6319 26.8504 10.6319 26.6927C10.6319 26.5557 10.7895 26.446 10.9883 26.446C11.194 26.4254 11.3722 26.5351 11.3722 26.6927ZM9.24032 26.3843C9.19234 26.5214 9.32944 26.679 9.53508 26.7202C9.71331 26.7887 9.91895 26.7202 9.96008 26.5831C10.0012 26.446 9.87097 26.2883 9.66532 26.2266C9.4871 26.1786 9.28831 26.2472 9.24032 26.3843ZM12.2702 26.2677C12.0714 26.3157 11.9343 26.446 11.9548 26.6036C11.9754 26.7407 12.1536 26.8298 12.3593 26.7819C12.5581 26.7339 12.6952 26.6036 12.6746 26.4665C12.654 26.3363 12.469 26.2472 12.2702 26.2677ZM16.7806 0C7.27298 0 0 7.21815 0 16.7258C0 24.3278 4.78468 30.8331 11.619 33.1226C12.4964 33.2803 12.8048 32.7387 12.8048 32.2932C12.8048 31.8682 12.7843 29.5238 12.7843 28.0843C12.7843 28.0843 7.98589 29.1125 6.97823 26.0415C6.97823 26.0415 6.19677 24.0468 5.07258 23.5327C5.07258 23.5327 3.50282 22.4565 5.18226 22.477C5.18226 22.477 6.88911 22.6141 7.82823 24.2456C9.32944 26.8915 11.8452 26.1307 12.8254 25.6782C12.9831 24.5815 13.4286 23.8206 13.9222 23.3682C10.0903 22.9431 6.22419 22.3879 6.22419 15.7936C6.22419 13.9085 6.74516 12.9625 7.84194 11.7561C7.66371 11.3105 7.08105 9.47339 8.02016 7.10161C9.45282 6.65605 12.75 8.95242 12.75 8.95242C14.121 8.56855 15.5948 8.36976 17.0548 8.36976C18.5149 8.36976 19.9887 8.56855 21.3597 8.95242C21.3597 8.95242 24.6569 6.6492 26.0895 7.10161C27.0286 9.48024 26.446 11.3105 26.2677 11.7561C27.3645 12.9694 28.0363 13.9153 28.0363 15.7936C28.0363 22.4085 23.9988 22.9363 20.1669 23.3682C20.7976 23.9097 21.3323 24.9379 21.3323 26.5488C21.3323 28.8589 21.3117 31.7173 21.3117 32.2794C21.3117 32.725 21.627 33.2665 22.4976 33.1089C29.3524 30.8331 34 24.3278 34 16.7258C34 7.21815 26.2883 0 16.7806 0ZM6.6629 23.6423C6.57379 23.7109 6.59436 23.8686 6.71089 23.9988C6.82056 24.1085 6.97823 24.1565 7.06734 24.0673C7.15645 23.9988 7.13589 23.8411 7.01936 23.7109C6.90968 23.6012 6.75202 23.5532 6.6629 23.6423ZM5.92258 23.0871C5.8746 23.1762 5.94315 23.2859 6.08024 23.3544C6.18992 23.423 6.32702 23.4024 6.375 23.3065C6.42298 23.2173 6.35444 23.1077 6.21734 23.0391C6.08024 22.998 5.97056 23.0186 5.92258 23.0871ZM8.14355 25.5274C8.03387 25.6165 8.075 25.8222 8.23266 25.9524C8.39032 26.1101 8.58911 26.1307 8.67823 26.021C8.76734 25.9319 8.72621 25.7262 8.58911 25.596C8.43831 25.4383 8.23266 25.4177 8.14355 25.5274ZM7.3621 24.5198C7.25242 24.5883 7.25242 24.7665 7.3621 24.9242C7.47177 25.0819 7.65686 25.1504 7.74597 25.0819C7.85565 24.9927 7.85565 24.8145 7.74597 24.6569C7.65 24.4992 7.47177 24.4307 7.3621 24.5198Z" fill="#121212"/>
</svg>
