<svg width="245" height="240" viewBox="0 0 245 240" fill="none" xmlns="http://www.w3.org/2000/svg">
<path d="M104.399 103.9C98.6992 103.9 94.1992 108.9 94.1992 115C94.1992 121.1 98.7992 126.1 104.399 126.1C110.099 126.1 114.599 121.1 114.599 115C114.699 108.9 110.099 103.9 104.399 103.9ZM140.899 103.9C135.199 103.9 130.699 108.9 130.699 115C130.699 121.1 135.299 126.1 140.899 126.1C146.599 126.1 151.099 121.1 151.099 115C151.099 108.9 146.599 103.9 140.899 103.9Z" fill="white"/>
<path d="M123 208C171.601 208 211 168.601 211 120C211 71.3989 171.601 32 123 32C74.3989 32 35 71.3989 35 120C35 168.601 74.3989 208 123 208Z" fill="white"/>
<path fill-rule="evenodd" clip-rule="evenodd" d="M71.568 119.616C98.6275 108.712 116.671 101.523 125.7 98.0496C151.477 88.1327 156.834 86.41 160.325 86.3531C161.093 86.3406 162.81 86.5166 163.922 87.3513C164.861 88.0561 165.119 89.0081 165.243 89.6763C165.366 90.3445 165.52 91.8667 165.398 93.0561C164.001 106.632 157.957 139.576 154.882 154.78C153.581 161.214 151 162.591 148.519 162.802C143.129 163.261 139.055 160.288 133.834 157.122C125.664 152.169 120.723 149.883 112.793 145.05C103.629 139.464 111.693 136.852 116.916 131.835C118.283 130.522 141.636 109.526 141.535 108.894C141.499 108.665 140.806 106.401 140.263 105.955C139.72 105.509 138.919 105.661 138.341 105.782C137.522 105.954 124.471 113.933 99.1883 129.718C95.4839 132.071 92.1285 133.217 89.1222 133.157C85.8079 133.091 79.4327 131.424 74.6934 129.999C68.8804 128.251 66.7346 127.428 67.1369 124.46C67.3465 122.914 68.8235 121.299 71.568 119.616V119.616Z" fill="#2A2A2A"/>
</svg>
