<svg width="455" height="478" viewBox="0 0 455 478" fill="none" xmlns="http://www.w3.org/2000/svg">
<path d="M329.345 295.263C304.771 302.323 268.425 302.054 218.02 289.801C206.645 287.035 195.181 294.015 192.415 305.39C189.65 316.766 196.63 328.229 208.005 330.995C261.814 344.076 306.435 345.954 341.052 336.008C376.896 325.71 401.251 302.83 412.164 270.117C415.176 261.09 417.101 251.511 418.038 241.472L357.993 142.823C361.782 152.792 364.988 162.399 367.606 171.612C378.045 208.327 378.604 236.751 371.949 256.701C365.753 275.272 352.693 288.554 329.345 295.263Z" fill="url(#paint0_linear)"/>
<path d="M83.5352 329.652C88.8666 304.646 106.204 272.7 140.731 233.988C148.523 225.251 147.757 211.852 139.021 204.059C130.284 196.267 116.884 197.033 109.093 205.77C72.234 247.096 49.5828 285.587 42.0725 320.813C34.297 357.287 43.0271 389.542 66.7591 414.563C71.3153 419.367 76.3549 423.832 81.834 427.974L200.149 426.063C191.199 424.822 182.692 423.329 174.645 421.59C137.336 413.528 111.991 400.648 97.518 385.389C84.0452 371.184 78.4699 353.411 83.5352 329.652Z" fill="url(#paint1_linear)"/>
<path d="M184.515 99.4612C201.648 115.989 219.125 146.254 233.549 195.466C237.954 210.492 253.704 219.102 268.729 214.698C283.754 210.294 292.364 194.543 287.96 179.519C272.218 125.812 251.071 84.8843 223.881 58.6539C195.461 31.2387 161.114 20.7461 124.863 28.1546C119.495 29.2514 113.994 30.6302 108.707 32.4517L34.687 167.343C45.8354 152.19 57.475 139.245 68.3994 127.983C94.4796 101.097 117.595 87.5114 136.216 83.7056C152.933 80.2893 168.61 84.1183 184.515 99.4612Z" fill="url(#paint2_linear)"/>
<defs>
<linearGradient id="paint0_linear" x1="399.747" y1="211.399" x2="201.438" y2="332.146" gradientUnits="userSpaceOnUse">
<stop stop-color="#121212"/>
<stop offset="0.729167" stop-color="#565555"/>
<stop offset="1" stop-color="#CBCBCB"/>
</linearGradient>
<linearGradient id="paint1_linear" x1="122.179" y1="430.519" x2="181.366" y2="209.369" gradientUnits="userSpaceOnUse">
<stop stop-color="#121212"/>
<stop offset="0.708333" stop-color="#565555"/>
<stop offset="1" stop-color="#CBCBCB"/>
</linearGradient>
<linearGradient id="paint2_linear" x1="87.0329" y1="88.0317" x2="255.609" y2="256.699" gradientUnits="userSpaceOnUse">
<stop stop-color="#121212"/>
<stop offset="0.703125" stop-color="#565555"/>
<stop offset="1" stop-color="#CBCBCB"/>
</linearGradient>
</defs>
</svg>
