<svg width="140" height="54" viewBox="0 0 140 54" fill="none" xmlns="http://www.w3.org/2000/svg">
<path d="M63.5125 14.0305V24.2983L63.5125 35.4788L71.6156 24.2983L79.173 14.0305H85.4117L75.417 28.4055L64.9676 42.7804H58.2014L58.2014 14.0305H63.5125Z" fill="#681AB4"/>
<path d="M111.436 14.0305V42.7804H105.761V38.3447C104.888 39.5495 103.596 40.6812 101.887 41.7399C100.177 42.7986 98.1944 43.328 95.939 43.328C93.5381 43.328 91.3372 42.6891 89.3365 41.4114C87.3721 40.1336 85.8079 38.363 84.6438 36.0995C83.4797 33.836 82.8977 31.2439 82.8977 28.3233C82.8977 25.4027 83.4979 22.8289 84.6984 20.6019C85.8988 18.3385 87.554 16.5861 89.6639 15.3448C91.7738 14.067 94.1747 13.4282 96.8666 13.4282C98.8674 13.4282 100.613 13.8663 102.105 14.7424C103.633 15.6186 104.851 16.6408 105.761 17.8091V14.0305H111.436ZM97.2486 38.1257C98.9947 38.1257 100.523 37.7058 101.832 36.8661C103.142 35.99 104.16 34.8217 104.888 33.3614C105.615 31.8646 105.979 30.1852 105.979 28.3233C105.979 26.4979 105.615 24.8551 104.888 23.3948C104.16 21.9345 103.142 20.7845 101.832 19.9448C100.523 19.0686 98.9947 18.6305 97.2486 18.6305C95.5752 18.6305 94.0837 19.0504 92.7742 19.89C91.4646 20.7297 90.446 21.8797 89.7185 23.34C88.9909 24.8003 88.6271 26.4614 88.6271 28.3233C88.6271 30.1852 88.9909 31.8646 89.7185 33.3614C90.446 34.8217 91.4646 35.99 92.7742 36.8661C94.0837 37.7058 95.5752 38.1257 97.2486 38.1257Z" fill="#681AB4"/>
<path d="M119.701 28.3781C119.701 30.2765 120.12 31.9741 120.956 33.4709C121.829 34.9312 122.957 36.0995 124.34 36.9757C125.758 37.8153 127.268 38.2352 128.868 38.2352C130.687 38.2352 132.27 37.7606 133.616 36.8114C134.962 35.8622 136.053 34.8765 136.89 33.8542L140 37.6876C139.309 38.6733 138.363 39.6042 137.163 40.4804C135.962 41.3201 134.598 42.0137 133.07 42.5613C131.542 43.0725 129.942 43.328 128.268 43.328C125.649 43.328 123.285 42.6709 121.175 41.3566C119.065 40.0423 117.391 38.2534 116.155 35.99C114.954 33.7265 114.354 31.1892 114.354 28.3781C114.354 25.5305 114.954 22.9932 116.155 20.7662C117.391 18.5027 119.065 16.7139 121.175 15.3996C123.285 14.0853 125.649 13.4282 128.268 13.4282C130.924 13.4282 133.288 13.9758 135.362 15.071C137.435 16.1297 138.981 17.517 140 19.2329L136.89 23.0662C136.053 21.8249 134.853 20.7662 133.288 19.89C131.76 18.9773 130.269 18.521 128.814 18.521C127.104 18.521 125.558 18.9591 124.176 19.8353C122.793 20.6749 121.702 21.8432 120.902 23.34C120.102 24.8003 119.701 26.4797 119.701 28.3781Z" fill="#681AB4"/>
<path d="M20.058 23.7065C21.4801 25.118 23.9872 26.4697 27.9121 27.5281C28.7979 27.7669 29.3223 28.6786 29.0834 29.5644C28.8446 30.4502 27.9329 30.9746 27.0471 30.7357C22.8573 29.6059 19.7209 28.0528 17.7177 26.0645C15.6434 24.0057 14.8327 21.5157 15.3162 18.8568C15.4496 18.1231 15.6785 17.3924 15.9926 16.6674L23.8367 12.1538C23.2005 12.6958 22.6182 13.235 22.0909 13.7692C19.9896 15.898 18.8797 17.8297 18.5848 19.4512C18.3103 20.9606 18.7069 22.3655 20.058 23.7065Z" fill="#C4C4C4"/>
<path d="M20.058 23.7065C21.4801 25.118 23.9872 26.4697 27.9121 27.5281C28.7979 27.7669 29.3223 28.6786 29.0834 29.5644C28.8446 30.4502 27.9329 30.9746 27.0471 30.7357C22.8573 29.6059 19.7209 28.0528 17.7177 26.0645C15.6434 24.0057 14.8327 21.5157 15.3162 18.8568C15.4496 18.1231 15.6785 17.3924 15.9926 16.6674L23.8367 12.1538C23.2005 12.6958 22.6182 13.235 22.0909 13.7692C19.9896 15.898 18.8797 17.8297 18.5848 19.4512C18.3103 20.9606 18.7069 22.3655 20.058 23.7065Z" fill="url(#paint0_linear)"/>
<path d="M35.6489 35.3358C36.2253 33.4168 36.2385 30.5685 35.3259 26.6073C35.1199 25.7133 35.6777 24.8216 36.5717 24.6157C37.4656 24.4097 38.3573 24.9674 38.5633 25.8614C39.5375 30.0901 39.6427 33.5884 38.8306 36.2916C37.9898 39.0905 36.174 40.9774 33.6004 41.8017C33.1063 41.9599 32.5917 42.0767 32.0591 42.1547L24.0028 37.5631C24.6644 37.8152 25.3052 38.0334 25.9236 38.2173C28.7907 39.0699 31.0175 39.1405 32.587 38.6378C34.0481 38.1698 35.1012 37.159 35.6489 35.3358Z" fill="#C4C4C4"/>
<path d="M35.6489 35.3358C36.2253 33.4168 36.2385 30.5685 35.3259 26.6073C35.1199 25.7133 35.6777 24.8216 36.5717 24.6157C37.4656 24.4097 38.3573 24.9674 38.5633 25.8614C39.5375 30.0901 39.6427 33.5884 38.8306 36.2916C37.9898 39.0905 36.174 40.9774 33.6004 41.8017C33.1063 41.9599 32.5917 42.0767 32.0591 42.1547L24.0028 37.5631C24.6644 37.8152 25.3052 38.0334 25.9236 38.2173C28.7907 39.0699 31.0175 39.1405 32.587 38.6378C34.0481 38.1698 35.1012 37.159 35.6489 35.3358Z" fill="url(#paint1_linear)"/>
<path d="M37.3891 15.7147C35.5889 16.2043 33.2473 17.6247 30.4011 20.4619C29.5321 21.3281 28.1254 21.3258 27.2592 20.4568C26.393 19.5879 26.3953 18.1812 27.2642 17.315C30.3704 14.2187 33.3661 12.2042 36.223 11.4272C39.209 10.6151 41.9642 11.1891 44.1754 13.0647C44.5029 13.3424 44.8288 13.6445 45.1234 13.969L45.1234 26.0266C44.9287 24.5653 44.6171 23.2372 44.2911 22.0517C43.5129 19.2214 42.4371 17.4166 41.3012 16.4531C40.2816 15.5882 39.0602 15.2602 37.3891 15.7147Z" fill="#C4C4C4"/>
<path d="M37.3891 15.7147C35.5889 16.2043 33.2473 17.6247 30.4011 20.4619C29.5321 21.3281 28.1254 21.3258 27.2592 20.4568C26.393 19.5879 26.3953 18.1812 27.2642 17.315C30.3704 14.2187 33.3661 12.2042 36.223 11.4272C39.209 10.6151 41.9642 11.1891 44.1754 13.0647C44.5029 13.3424 44.8288 13.6445 45.1234 13.969L45.1234 26.0266C44.9287 24.5653 44.6171 23.2372 44.2911 22.0517C43.5129 19.2214 42.4371 17.4166 41.3012 16.4531C40.2816 15.5882 39.0602 15.2602 37.3891 15.7147Z" fill="url(#paint2_linear)"/>
<path fill-rule="evenodd" clip-rule="evenodd" d="M26.0864 10.8651L35.1344 5.36716C39.5818 2.80895 45.1307 6.02444 45.1225 11.1551L45.1235 26.2502L49.5603 32.28L49.5658 11.1621C49.5794 2.61112 40.3312 -2.74804 32.919 1.51566L29.2496 3.8005L26.0864 10.8651Z" fill="#8524EE"/>
<path fill-rule="evenodd" clip-rule="evenodd" d="M20.7771 35.7219L11.8908 30.5636C7.45161 27.9912 7.46185 21.5779 11.9092 19.0197L26.0869 10.8643L29.2505 3.80153L9.6937 15.1682C2.28147 19.4319 2.26441 30.1207 9.66299 34.408L12.734 36.2801L20.7771 35.7219Z" fill="#8524EE"/>
<path fill-rule="evenodd" clip-rule="evenodd" d="M45.1239 26.251L45.0833 38.0045C45.0654 43.1627 39.4823 46.3881 35.0336 43.8102L20.7763 35.7221L12.7339 36.2793L32.6948 47.8463C40.1092 52.1428 49.5111 46.6003 49.5408 38.0033L49.5606 32.2804L45.1239 26.251Z" fill="#8524EE"/>
<defs>
<linearGradient id="paint0_linear" x1="18.3828" y1="15.291" x2="27.455" y2="31.0624" gradientUnits="userSpaceOnUse">
<stop stop-color="#681AB4"/>
<stop offset="0.4375" stop-color="#8524EE"/>
<stop offset="1" stop-color="#F7B930"/>
</linearGradient>
<linearGradient id="paint1_linear" x1="29.1914" y1="40.8086" x2="38.8052" y2="25.4389" gradientUnits="userSpaceOnUse">
<stop stop-color="#681AB4"/>
<stop offset="0.402746" stop-color="#8524EE"/>
<stop offset="1" stop-color="#F7B930"/>
</linearGradient>
<linearGradient id="paint2_linear" x1="44.5171" y1="18.6045" x2="26.5772" y2="23.837" gradientUnits="userSpaceOnUse">
<stop stop-color="#681AB4"/>
<stop offset="0.25" stop-color="#8524EE"/>
<stop offset="0.791667" stop-color="#F7B930"/>
</linearGradient>
</defs>
</svg>
