<svg width="34" height="34" viewBox="0 0 34 34" fill="none" xmlns="http://www.w3.org/2000/svg">
<path fill-rule="evenodd" clip-rule="evenodd" d="M0 17C0 7.61114 7.61084 0 16.9997 0C26.3885 0 34 7.61114 34 17C34 26.3889 26.3885 34 16.9997 34C7.61084 34 0 26.3889 0 17ZM17.0632 16.2595L17.0622 16.2594V16.2588C16.2043 16.1694 15.3463 16.0806 14.2911 16.139C13.7851 16.167 13.2481 16.2388 12.7378 16.3574C13.0483 12.6009 15.8109 9.31288 19.5672 9.10479C21.872 8.97641 24.1754 10.3466 24.3009 12.5711C24.4239 14.7572 22.6921 16.2199 19.8339 16.3787C18.7791 16.4371 17.9215 16.3483 17.0632 16.2595ZM14.1833 24.2994C11.9998 24.4174 9.8175 23.161 9.69934 21.1221L9.69873 21.1227C9.58305 19.1185 11.2228 17.7781 13.9306 17.6327C14.9305 17.5785 15.7434 17.6601 16.5562 17.7422L16.5763 17.7442C17.3831 17.8245 18.1908 17.9048 19.1818 17.8517C19.6616 17.8256 20.1701 17.7605 20.6535 17.6509C20.3594 21.0947 17.743 24.1083 14.1833 24.2994Z" fill="#121212"/>
</svg>
