<svg width="34" height="28" viewBox="0 0 34 28" fill="none" xmlns="http://www.w3.org/2000/svg">
<path d="M30.5052 6.88197C30.5267 7.18399 30.5267 7.48607 30.5267 7.78808C30.5267 17 23.5153 27.6143 10.7005 27.6143C6.75255 27.6143 3.08505 26.4708 0 24.4861C0.560936 24.5508 1.10022 24.5724 1.68274 24.5724C4.94031 24.5724 7.9391 23.4722 10.3338 21.5953C7.27032 21.5305 4.70304 19.5242 3.81851 16.7627C4.25002 16.8274 4.68146 16.8706 5.13455 16.8706C5.76017 16.8706 6.38585 16.7842 6.9683 16.6333C3.77541 15.986 1.38066 13.1815 1.38066 9.79443V9.70816C2.30829 10.2259 3.38706 10.5495 4.53039 10.5926C2.65347 9.34133 1.42382 7.20557 1.42382 4.7893C1.42382 3.49491 1.76894 2.30836 2.37304 1.27281C5.80327 5.50125 10.9594 8.26263 16.7411 8.56471C16.6332 8.04694 16.5685 7.50765 16.5685 6.9683C16.5685 3.12814 19.6751 4.86376e-08 23.5368 4.86376e-08C25.5431 4.86376e-08 27.3553 0.84137 28.6282 2.20051C30.203 1.89849 31.7132 1.31598 33.0508 0.517771C32.5329 2.13583 31.4327 3.49497 29.9873 4.35786C31.3896 4.20692 32.7488 3.81851 34 3.27922C33.0509 4.65988 31.8643 5.88952 30.5052 6.88197Z" fill="#121212"/>
</svg>
